<?xml version="1.0" standalone="no"?>
<!DOCTYPE svg PUBLIC "-//W3C//DTD SVG 20010904//EN"
 "http://www.w3.org/TR/2001/REC-SVG-20010904/DTD/svg10.dtd">
<svg version="1.0" xmlns="http://www.w3.org/2000/svg"
 width="785" height="589" viewBox="0 0 225.000000 225.000000"
 preserveAspectRatio="xMidYMid meet">
<metadata>
Created by potrace 1.16, written by Peter Selinger 2001-2019
</metadata>
<g transform="translate(0.000000,225.000000) scale(0.100000,-0.100000)"
fill="#000000" stroke="none">
<path d="M341 1789 c-63 -27 -123 -57 -134 -67 -60 -54 -83 -191 -53 -312 74
-302 461 -741 806 -915 195 -99 384 -110 477 -28 36 32 138 263 128 293 -9 27
-29 42 -195 140 -115 67 -161 89 -178 85 -13 -3 -67 -30 -122 -60 -54 -30
-104 -55 -112 -55 -19 0 -358 342 -358 361 0 9 25 62 55 117 30 56 55 114 55
129 0 32 -172 326 -204 348 -30 21 -39 19 -165 -36z m236 -145 c50 -82 92
-155 92 -163 1 -7 -26 -64 -59 -126 -33 -62 -60 -121 -60 -131 0 -21 364 -390
393 -398 12 -3 62 17 134 55 63 32 120 59 128 59 7 0 80 -40 162 -88 103 -61
149 -94 150 -107 2 -11 -19 -69 -45 -130 -45 -104 -50 -110 -95 -134 -121 -62
-294 -22 -504 115 -375 244 -693 671 -693 929 0 62 24 136 51 161 22 20 229
113 244 110 6 -1 51 -69 102 -152z"/>
<path d="M685 1830 c-3 -5 -3 -14 0 -20 4 -6 232 -10 651 -10 553 0 649 -2
674 -15 62 -32 60 -15 60 -518 l0 -459 -34 -34 -34 -34 -121 0 c-116 0 -121
-1 -121 -21 0 -20 4 -20 135 -17 l135 3 37 38 38 37 3 478 3 478 -23 35 c-49
72 -18 69 -745 69 -424 0 -654 -3 -658 -10z"/>
<path d="M1838 1613 c-29 -25 -151 -137 -272 -247 -120 -111 -224 -202 -230
-203 -6 -2 -119 96 -251 217 -131 121 -244 219 -250 217 -28 -10 3 -48 145
-178 85 -78 156 -144 158 -148 1 -4 -38 -44 -88 -90 -49 -45 -90 -89 -90 -96
0 -34 26 -20 118 64 l99 90 76 -69 c41 -39 78 -70 81 -70 3 0 41 32 82 71 l77
70 41 -39 c142 -136 351 -322 360 -319 29 10 -4 49 -176 207 -104 95 -188 175
-188 179 0 4 86 85 190 180 105 96 190 179 190 187 0 29 -21 22 -72 -23z"/>
</g>
</svg>
