<?xml version="1.0" standalone="no"?>
<!DOCTYPE svg PUBLIC "-//W3C//DTD SVG 20010904//EN"
 "http://www.w3.org/TR/2001/REC-SVG-20010904/DTD/svg10.dtd">
<svg version="1.0" xmlns="http://www.w3.org/2000/svg"
 width="225.000000pt" height="225.000000pt" viewBox="0 0 225.000000 225.000000"
 preserveAspectRatio="xMidYMid meet">
<metadata>
Created by potrace 1.16, written by Peter Selinger 2001-2019
</metadata>
<g transform="translate(0.000000,225.000000) scale(0.100000,-0.100000)"
fill="#000000" stroke="none">
<path d="M1050 1969 l0 -281 -42 8 c-24 4 -86 7 -138 7 -376 -5 -613 -244
-613 -618 1 -304 147 -495 430 -562 143 -33 568 -20 706 23 16 5 17 55 17 855
l0 849 -180 0 -180 0 0 -281z m-12 -573 c9 -5 12 -78 12 -297 0 -266 -1 -290
-17 -297 -10 -4 -58 -7 -108 -7 -72 1 -100 5 -143 24 -109 49 -158 146 -150
301 9 197 114 294 308 287 47 -2 91 -6 98 -11z"/>
<path d="M1630 2055 l0 -185 185 0 185 0 0 185 0 185 -185 0 -185 0 0 -185z"/>
<path d="M1627 1148 c-5 -576 -8 -607 -60 -723 -15 -32 -39 -74 -53 -92 -31
-41 -111 -101 -186 -140 l-57 -30 171 -81 170 -82 72 42 c90 52 182 145 224
225 78 148 92 293 92 946 l0 467 -184 0 -184 0 -5 -532z"/>
</g>
</svg>
