<?xml version="1.0" standalone="no"?>
<!DOCTYPE svg PUBLIC "-//W3C//DTD SVG 20010904//EN"
 "http://www.w3.org/TR/2001/REC-SVG-20010904/DTD/svg10.dtd">
<svg version="1.0" xmlns="http://www.w3.org/2000/svg"
 width="225.000000pt" height="225.000000pt" viewBox="0 0 225.000000 225.000000"
 preserveAspectRatio="xMidYMid meet">
<metadata>
Created by potrace 1.16, written by Peter Selinger 2001-2019
</metadata>
<g transform="translate(0.000000,225.000000) scale(0.100000,-0.100000)"
fill="#000000" stroke="none">
<path d="M1327 1728 c-27 -25 -622 -1069 -632 -1109 -22 -89 100 -159 168 -96
27 24 622 1067 632 1108 22 89 -100 159 -168 97z"/>
<path d="M387 1529 c-28 -8 -337 -316 -364 -363 -7 -11 -12 -41 -13 -65 0 -48
-14 -31 267 -321 90 -93 93 -95 139 -95 39 0 50 5 75 33 33 37 38 85 15 130
-8 15 -51 63 -96 107 -45 44 -95 97 -112 118 l-30 37 126 135 c122 131 126
136 126 179 0 74 -63 124 -133 105z"/>
<path d="M1803 1528 c-45 -12 -73 -51 -73 -105 0 -42 4 -48 126 -178 l126
-135 -30 -37 c-17 -21 -67 -74 -112 -118 -45 -44 -88 -92 -96 -107 -23 -45
-18 -93 15 -130 25 -28 36 -33 75 -33 46 0 49 2 139 95 281 290 267 273 267
321 -1 24 -6 54 -13 65 -7 12 -85 96 -173 188 -168 173 -192 190 -251 174z"/>
</g>
</svg>
