<?xml version="1.0" standalone="no"?>
<!DOCTYPE svg PUBLIC "-//W3C//DTD SVG 20010904//EN"
 "http://www.w3.org/TR/2001/REC-SVG-20010904/DTD/svg10.dtd">
<svg version="1.0" xmlns="http://www.w3.org/2000/svg"
 width="682" height="614" viewBox="0 0 315.000000 160.000000"
 preserveAspectRatio="xMidYMid meet">
<metadata>
Created by potrace 1.16, written by Peter Selinger 2001-2019
</metadata>
<g transform="translate(0.000000,160.000000) scale(0.100000,-0.100000)"
fill="#000000" stroke="none">
<path d="M1603 1528 c-80 -26 -124 -125 -89 -200 26 -55 72 -83 132 -82 86 0
144 58 144 143 0 98 -95 169 -187 139z"/>
<path d="M956 1403 c-16 -4 -17 -11 -11 -46 13 -67 11 -222 -4 -368 l-14 -136
-40 -9 c-22 -5 -42 -15 -45 -21 -3 -10 23 -13 108 -13 81 0 111 3 108 12 -2 6
-20 17 -39 23 -32 12 -34 14 -31 56 4 76 13 131 20 124 4 -4 12 -30 17 -58 9
-48 12 -52 35 -49 14 2 29 8 34 12 5 5 -4 70 -22 157 -17 81 -39 187 -48 236
-19 90 -21 92 -68 80z"/>
<path d="M1763 1244 c-20 -10 -67 -63 -123 -138 l-91 -122 -116 -12 c-138 -15
-153 -21 -153 -66 0 -53 17 -60 123 -52 106 7 187 16 204 21 6 2 34 33 61 70
l50 65 51 -121 c29 -67 50 -123 48 -126 -2 -2 -55 -6 -118 -10 -100 -6 -116
-9 -136 -29 -18 -18 -23 -34 -23 -72 0 -43 -11 -68 -105 -232 -64 -113 -105
-195 -105 -212 0 -38 32 -68 73 -68 38 0 58 19 103 95 l29 50 3 -62 c3 -53 7
-65 29 -83 33 -25 67 -26 93 0 18 18 20 33 20 194 0 172 0 174 23 179 12 3 62
19 110 36 61 21 107 31 148 31 96 0 153 35 178 109 15 46 7 70 -95 308 -100
231 -117 254 -196 260 -36 2 -63 -2 -85 -13z"/>
<path d="M2283 1040 c-26 -11 -27 -16 -47 -175 -34 -280 -94 -345 -326 -353
-132 -5 -160 -16 -160 -62 0 -53 33 -64 163 -57 62 3 121 9 130 13 15 5 17 -2
17 -65 0 -81 -1 -83 -83 -85 -41 -1 -52 -5 -55 -19 -3 -16 11 -17 178 -17 167
0 181 1 178 18 -3 14 -15 17 -71 18 -37 1 -69 3 -71 5 -2 2 -6 40 -10 84 l-7
81 41 18 c43 19 106 90 141 159 24 46 54 184 64 287 3 41 8 84 11 95 10 42
-46 75 -93 55z"/>
<path d="M800 765 c0 -31 3 -35 25 -35 l25 0 0 -305 0 -305 165 0 c150 0 165
2 166 18 1 9 2 145 2 302 l2 285 169 5 170 5 3 33 4 32 -365 0 -366 0 0 -35z"/>
</g>
</svg>
