<?xml version="1.0" standalone="no"?>
<!DOCTYPE svg PUBLIC "-//W3C//DTD SVG 20010904//EN"
 "http://www.w3.org/TR/2001/REC-SVG-20010904/DTD/svg10.dtd">
<svg version="1.0" xmlns="http://www.w3.org/2000/svg"
 width="1200.000000pt" height="1200.000000pt" viewBox="0 0 1200.000000 1200.000000"
 preserveAspectRatio="xMidYMid meet">
<metadata>
Created by potrace 1.16, written by Peter Selinger 2001-2019
</metadata>
<g transform="translate(0.000000,1200.000000) scale(0.100000,-0.100000)"
fill="#000000" stroke="none">
<path d="M4601 11508 c21 -71 24 -108 8 -108 -7 0 -8 11 -4 30 9 39 -17 41
-31 3 -10 -27 -11 -25 -34 45 -23 71 -42 87 -48 44 -4 -26 -15 -28 -36 -6 -9
8 -20 13 -26 9 -10 -6 -7 -56 5 -87 4 -10 3 -18 -3 -18 -7 0 -8 -10 -2 -30 7
-26 6 -30 -10 -30 -23 0 -42 58 -33 103 5 25 4 29 -10 24 -10 -4 -17 -2 -17 3
0 6 -7 10 -15 10 -8 0 -15 -4 -15 -10 0 -5 -7 -7 -15 -4 -10 4 -15 0 -15 -11
0 -9 -4 -14 -9 -10 -16 9 -25 -17 -10 -29 8 -6 19 -31 26 -56 6 -25 14 -52 18
-60 4 -11 -1 -16 -14 -17 -26 -2 -35 26 -26 78 6 37 5 40 -12 35 -14 -5 -23 1
-33 19 -16 31 -35 33 -37 4 -3 -31 -10 -34 -31 -16 -24 22 -42 22 -40 0 5 -63
-15 -87 -27 -32 -6 25 -11 30 -33 27 -28 -3 -31 -14 -18 -56 7 -22 6 -23 -14
-12 -12 7 -25 21 -27 31 -8 28 -23 23 -35 -12 l-10 -30 -22 20 c-26 25 -36 19
-36 -21 0 -18 -5 -28 -15 -28 -8 0 -15 7 -15 15 0 8 -6 15 -14 15 -8 0 -22 3
-32 7 -14 5 -16 2 -12 -20 3 -15 1 -24 -3 -21 -5 3 -9 12 -9 20 0 8 -7 14 -16
14 -10 0 -14 -6 -10 -15 4 -11 -1 -15 -19 -15 -16 0 -25 -6 -25 -15 0 -8 -4
-15 -10 -15 -5 0 -10 7 -10 16 0 10 -7 14 -22 12 -18 -2 -22 -9 -20 -27 2 -23
1 -24 -16 -8 -18 17 -42 23 -42 11 0 -3 7 -31 16 -61 9 -30 13 -57 10 -60 -3
-3 -13 22 -22 56 -17 58 -44 85 -44 42 0 -27 -17 -35 -23 -12 -3 15 -11 18
-27 14 -15 -4 -20 -11 -17 -24 4 -15 -1 -17 -45 -14 -47 4 -50 3 -45 -18 6
-20 5 -20 -7 -4 -16 21 -40 23 -32 2 3 -8 0 -14 -7 -12 -7 1 -12 -6 -12 -15 0
-10 -5 -22 -11 -28 -9 -9 -15 -4 -25 18 -14 32 -39 33 -39 2 0 -26 -15 -33
-30 -15 -17 20 -39 19 -38 -2 1 -10 -2 -31 -6 -48 l-8 -30 -12 40 c-9 31 -16
39 -32 37 -30 -5 -35 -15 -25 -50 9 -30 8 -31 -9 -22 -11 6 -24 19 -30 30 -15
29 -27 25 -35 -11 l-7 -31 -22 21 c-30 29 -36 27 -36 -13 0 -25 -5 -35 -20
-39 -17 -4 -20 -2 -15 14 4 13 2 19 -9 19 -8 0 -22 3 -32 7 -15 5 -16 1 -11
-33 l6 -39 -11 33 c-13 37 -28 41 -46 11 -12 -18 -11 -24 9 -45 12 -13 19 -24
14 -24 -5 0 -4 -5 3 -12 17 -17 15 -55 -2 -61 -10 -4 -17 3 -21 23 -3 15 -13
31 -21 34 -8 3 -14 15 -14 26 0 11 -4 20 -10 20 -5 0 -10 7 -10 15 0 25 -27
17 -34 -11 -6 -24 -8 -25 -25 -10 -18 16 -41 22 -41 9 0 -4 7 -33 16 -65 18
-65 14 -80 -15 -54 -29 26 -38 0 -10 -30 12 -13 17 -24 11 -24 -16 0 -34 35
-53 99 -8 30 -21 57 -27 59 -15 5 -15 -12 -2 -57 l10 -34 -28 26 c-28 27 -52
35 -52 19 0 -5 9 -17 19 -26 14 -13 17 -23 11 -35 -4 -9 -12 -27 -17 -41 -9
-23 -11 -21 -22 28 -8 32 -18 52 -27 52 -17 0 -17 -5 -5 -48 l10 -32 -29 20
c-24 17 -33 19 -51 10 -18 -10 -20 -17 -14 -48 l7 -37 -24 23 c-37 34 -50 29
-44 -18 6 -47 -12 -65 -20 -21 -6 30 -18 39 -28 22 -3 -4 -1 -23 4 -40 7 -24
6 -31 -3 -28 -7 2 -13 13 -15 25 -4 25 -24 29 -41 8 -8 -10 -9 -16 -2 -21 6
-3 16 -15 22 -27 10 -18 6 -17 -24 6 -45 34 -66 15 -22 -20 26 -21 17 -29 -12
-11 -7 5 -17 5 -23 2 -5 -3 -10 -1 -10 4 0 6 -6 11 -14 11 -11 0 -13 -9 -9
-37 l6 -38 -26 23 c-22 21 -27 22 -46 10 -24 -15 -24 -13 -12 -56 10 -34 5
-35 -31 -4 -29 25 -51 8 -45 -36 6 -35 5 -36 -6 -9 -12 30 -28 34 -47 12 -10
-13 -9 -19 6 -38 l19 -22 -22 18 c-14 13 -29 16 -43 12 -22 -7 -22 -19 -3 -72
4 -13 -2 -10 -24 10 -28 26 -33 27 -52 15 -17 -10 -21 -19 -17 -40 4 -20 1
-28 -9 -28 -7 0 -17 5 -20 10 -3 6 -13 10 -20 10 -11 0 -14 -10 -11 -40 5 -48
-10 -63 -19 -20 -4 17 -13 30 -22 30 -15 0 -14 -19 4 -67 6 -16 5 -16 -10 -4
-9 7 -17 20 -17 27 0 16 -36 19 -45 3 -4 -6 2 -19 14 -30 12 -11 21 -25 21
-31 0 -7 -13 1 -29 16 -35 34 -64 26 -32 -8 12 -12 18 -25 15 -29 -7 -6 -45
12 -55 27 -4 5 -12 5 -18 1 -11 -6 -9 -21 7 -64 4 -10 -7 -6 -28 9 -23 16 -35
20 -38 12 -2 -7 -11 -12 -19 -12 -15 0 -14 -17 4 -67 4 -13 -3 -10 -26 11 -22
22 -34 27 -42 19 -8 -8 0 -21 28 -48 l38 -37 -38 6 c-24 3 -37 1 -38 -7 0 -7
-5 3 -10 21 -6 18 -16 32 -25 32 -15 0 -14 -11 3 -57 8 -20 -12 -15 -32 7 -10
11 -22 20 -27 20 -20 0 -4 -27 47 -75 51 -50 67 -75 46 -75 -5 0 -12 11 -15
25 -4 14 -13 25 -21 25 -18 0 -18 -1 -5 -34 14 -37 -1 -32 -59 20 -36 32 -55
44 -62 37 -8 -8 -7 -17 0 -31 16 -31 14 -35 -18 -29 -42 9 -44 -1 -11 -43 17
-21 30 -42 30 -48 0 -6 12 -20 27 -32 16 -12 22 -19 16 -15 -7 3 -13 1 -13 -4
0 -6 -4 -11 -9 -11 -16 0 -68 54 -76 78 -6 22 -25 31 -25 11 0 -5 -4 -7 -10
-4 -5 3 -15 3 -21 -1 -7 -4 0 -18 18 -38 24 -27 25 -28 2 -8 -34 30 -49 28
-49 -8 0 -22 5 -30 18 -30 14 0 14 -2 3 -9 -8 -5 -11 -16 -8 -25 5 -12 0 -12
-29 4 -46 26 -47 26 -40 -13 6 -33 5 -33 -24 -29 -30 4 -38 -5 -21 -24 4 -5
12 -22 16 -39 l7 -30 -24 23 c-36 33 -66 27 -36 -8 11 -12 10 -12 -4 -1 -9 7
-23 9 -29 5 -9 -5 -2 -16 22 -37 l34 -29 -35 7 c-70 14 -71 13 -54 -29 7 -17
4 -18 -23 -13 -38 8 -48 -1 -26 -25 9 -10 12 -18 8 -18 -5 0 0 -7 11 -15 17
-13 17 -14 2 -15 -28 0 -21 -19 10 -26 15 -3 34 -8 42 -10 20 -5 53 -61 41
-68 -10 -6 -90 57 -124 98 -13 15 -20 17 -24 8 -4 -9 -8 -10 -18 -2 -10 8 -15
8 -21 -1 -4 -8 4 -22 22 -37 16 -13 22 -21 14 -17 -8 5 -22 14 -32 22 -19 17
-26 8 -24 -27 1 -19 7 -26 26 -29 34 -4 87 -60 69 -72 -8 -5 -20 -2 -30 7 -8
7 -21 14 -27 14 -7 0 -30 11 -52 25 -42 27 -54 21 -44 -21 7 -26 6 -27 -25
-21 -45 9 -39 -9 22 -64 l52 -48 -32 -1 c-41 0 -43 -18 -3 -26 27 -6 43 -24
21 -24 -12 0 -81 47 -113 77 -38 36 -58 19 -22 -18 l28 -29 -37 0 c-42 0 -50
-15 -13 -24 14 -3 26 -16 30 -30 3 -13 9 -32 13 -42 5 -14 -5 -9 -36 15 -28
22 -46 30 -52 24 -7 -7 1 -20 23 -38 l33 -28 -43 8 c-34 5 -42 4 -42 -8 0 -9
-6 -17 -12 -20 -9 -3 -3 -15 17 -37 l30 -32 -37 7 c-43 8 -49 -4 -22 -43 20
-29 10 -41 -15 -18 -15 13 -21 14 -27 5 -5 -8 5 -23 27 -42 35 -30 34 -31 -14
-7 -25 12 -30 12 -37 0 -13 -21 -12 -30 3 -30 7 0 22 -7 33 -15 17 -14 16 -14
-23 -9 -36 5 -43 4 -43 -10 0 -12 10 -16 38 -16 30 -1 34 -2 19 -11 -10 -6
-31 -11 -47 -11 -36 -1 -38 -13 -8 -45 l21 -23 -33 0 c-20 0 -38 -7 -46 -17
-11 -15 -9 -22 14 -45 l26 -28 -37 0 c-20 0 -37 -4 -37 -9 0 -10 34 -21 68
-21 31 0 27 -15 -8 -30 -17 -7 -27 -17 -23 -24 3 -6 -5 0 -20 13 -38 34 -56
16 -20 -21 l28 -30 -37 7 c-30 6 -38 4 -38 -8 0 -10 16 -17 57 -22 61 -7 113
-29 113 -46 0 -11 -15 -4 -43 19 -12 11 -21 12 -28 5 -7 -7 -2 -17 18 -33 l28
-22 -83 7 c-82 8 -100 1 -62 -23 27 -16 25 -29 -5 -36 -53 -14 -20 -38 71 -52
26 -4 66 -15 88 -25 37 -16 38 -18 16 -23 -91 -19 -117 -16 -161 16 -13 9 -20
8 -33 -5 -22 -22 -20 -37 7 -37 12 0 29 -4 36 -9 10 -6 0 -8 -28 -4 -35 5 -42
3 -37 -8 3 -8 9 -22 12 -32 5 -12 12 -16 23 -11 39 17 73 15 125 -7 30 -12 53
-26 49 -32 -3 -5 -51 -6 -114 -3 -115 6 -129 1 -87 -34 l23 -18 -28 -13 c-15
-7 -27 -15 -27 -19 0 -9 36 -20 67 -20 12 0 34 -5 50 -11 l28 -11 -29 -15
c-19 -10 -25 -18 -18 -25 6 -6 20 -4 41 6 17 9 31 12 31 7 0 -24 -49 -30 -132
-17 -40 6 -48 5 -48 -8 0 -11 9 -16 30 -16 38 0 39 -14 1 -30 -19 -7 -28 -17
-24 -26 4 -11 9 -11 31 0 25 12 29 11 55 -20 l28 -33 -56 6 c-66 7 -78 -13
-14 -23 l42 -7 -35 -18 c-29 -15 -35 -23 -31 -43 4 -19 13 -26 41 -31 l37 -7
-33 -16 c-17 -9 -32 -22 -32 -29 0 -17 0 -17 55 7 l47 20 -21 -33 c-11 -19
-19 -36 -16 -39 3 -2 -9 -3 -25 0 -22 3 -30 0 -30 -11 0 -11 12 -17 38 -19
l37 -3 -40 -22 c-59 -32 -23 -40 46 -10 29 13 76 27 104 31 l49 6 -33 -34
c-19 -19 -63 -49 -99 -66 -66 -32 -71 -46 -19 -52 l28 -3 -21 -23 c-36 -38
-11 -46 51 -18 30 14 81 29 113 34 l59 9 -39 -34 c-21 -18 -68 -49 -104 -67
-48 -25 -61 -36 -48 -41 9 -4 25 -2 37 4 30 17 33 14 15 -20 -10 -20 -12 -35
-6 -41 6 -6 21 9 43 44 42 68 140 150 225 188 36 17 68 30 70 30 2 0 -13 -27
-33 -61 -46 -74 -163 -180 -227 -204 -25 -10 -46 -24 -46 -31 0 -18 14 -18 52
2 l31 16 -22 -35 c-24 -40 -26 -47 -8 -47 6 0 24 19 39 43 30 47 105 124 113
116 10 -10 -25 -104 -55 -149 -33 -50 -36 -60 -17 -60 7 0 22 15 32 33 l20 32
3 -42 c5 -64 22 -52 22 15 0 87 44 210 114 317 47 70 83 110 165 180 99 85
118 96 286 172 l180 82 250 34 250 35 358 -52 c197 -28 356 -54 353 -56 -3 -3
178 -89 401 -190 336 -153 414 -192 447 -225 23 -22 237 -210 476 -417 270
-233 436 -383 436 -395 0 -10 199 -326 441 -703 282 -438 437 -687 430 -692
-13 -8 -16 4 356 -1263 224 -762 251 -860 235 -863 -17 -3 -18 -65 -18 -1503
l0 -1499 190 0 190 0 0 1499 c0 1438 -1 1500 -18 1503 -16 3 13 108 249 913
369 1253 355 1205 342 1213 -7 5 146 252 433 697 244 380 442 695 439 702 -2
6 205 193 460 414 255 221 466 406 468 413 3 6 192 96 420 201 229 104 414
192 411 194 -3 3 156 29 353 57 l358 52 250 -35 250 -34 180 -82 c168 -76 187
-87 286 -172 82 -70 118 -110 165 -180 70 -107 114 -230 114 -317 0 -67 17
-79 22 -15 l3 42 20 -32 c10 -18 25 -33 32 -33 19 0 16 10 -17 60 -29 44 -65
139 -55 148 9 9 81 -63 110 -110 16 -27 35 -48 42 -48 18 0 16 9 -7 48 l-20
33 29 -16 c37 -19 51 -19 51 -1 0 7 -23 23 -51 34 -69 29 -169 120 -218 198
-22 35 -39 64 -37 64 2 0 34 -13 70 -30 85 -38 183 -120 225 -188 23 -37 37
-50 44 -43 6 6 3 21 -11 45 l-21 36 30 -16 c17 -8 38 -12 47 -9 13 5 0 16 -48
41 -36 18 -82 49 -104 67 l-39 34 64 -9 c35 -6 86 -21 113 -35 57 -29 82 -19
46 19 l-21 23 28 3 c51 6 48 21 -9 47 -31 14 -76 43 -100 65 l-43 39 50 -6
c28 -3 75 -17 104 -30 69 -30 105 -22 46 10 l-40 22 38 3 c25 2 37 8 37 19 0
11 -8 14 -30 11 -16 -3 -28 -2 -25 0 3 3 -5 20 -16 39 l-21 34 38 -16 c22 -9
45 -19 52 -22 28 -12 9 25 -20 39 l-33 16 37 7 c28 5 37 12 41 31 4 20 -2 28
-31 43 l-35 18 42 7 c64 10 52 30 -14 23 l-56 -6 28 33 c26 31 30 32 55 20 22
-11 27 -11 31 0 4 9 -5 19 -24 26 -38 16 -37 30 1 30 21 0 30 5 30 16 0 13 -8
14 -47 8 -84 -13 -133 -7 -133 17 0 5 14 2 31 -7 21 -10 35 -12 41 -6 7 7 1
15 -18 25 l-29 15 28 11 c16 6 41 11 57 11 33 0 60 9 60 19 0 4 -12 13 -27 20
l-28 13 23 18 c42 34 28 41 -73 34 -52 -3 -105 -2 -116 1 -17 6 -12 11 33 32
51 24 90 26 129 9 11 -5 18 -1 23 11 3 10 9 24 12 32 5 11 -2 13 -37 8 -28 -4
-38 -2 -28 4 7 5 24 9 37 9 26 0 28 15 6 37 -13 13 -20 14 -33 5 -44 -32 -70
-35 -161 -16 -22 5 -22 7 15 23 22 10 61 20 86 24 54 7 99 23 99 35 0 5 -12
14 -27 21 l-28 13 23 18 c12 10 22 21 22 25 0 4 -35 4 -77 0 l-78 -7 23 25
c27 28 13 49 -16 25 -27 -23 -42 -30 -42 -19 0 17 52 39 113 46 41 5 57 12 57
22 0 12 -8 14 -37 8 l-38 -7 28 30 c36 37 18 55 -20 21 -15 -13 -23 -19 -20
-13 4 7 -6 17 -23 24 -35 15 -39 30 -7 30 33 0 67 11 67 21 0 5 -17 9 -37 9
l-37 0 26 28 c23 23 25 30 14 45 -8 10 -26 17 -46 17 l-33 0 21 23 c30 32 28
44 -8 45 -16 0 -37 5 -47 11 -15 9 -11 10 20 11 27 0 37 4 37 16 0 14 -7 15
-42 10 -40 -5 -41 -5 -24 9 11 8 26 15 33 15 15 0 16 9 3 30 -7 12 -12 12 -37
0 -48 -24 -49 -23 -14 7 22 19 32 34 27 42 -6 9 -12 8 -27 -5 -25 -23 -35 -11
-15 18 27 39 21 51 -21 43 l-38 -7 30 32 c20 22 26 34 18 37 -7 3 -13 11 -13
20 0 12 -8 13 -42 8 l-43 -8 33 28 c22 18 30 31 23 38 -6 6 -24 -2 -52 -24
-31 -24 -41 -29 -36 -15 4 10 10 29 13 42 4 14 16 27 30 30 37 9 29 24 -13 24
l-37 0 28 29 c36 37 16 54 -22 18 -32 -30 -101 -77 -113 -77 -22 0 -6 18 21
24 40 8 38 26 -2 26 l-33 1 53 48 c60 55 66 73 21 64 -31 -6 -32 -5 -25 21 10
42 -2 48 -44 21 -22 -14 -45 -25 -52 -25 -6 0 -19 -7 -27 -14 -10 -9 -22 -12
-30 -7 -18 12 35 68 69 72 19 3 25 10 26 29 2 35 -5 44 -24 27 -10 -8 -24 -17
-32 -22 -8 -4 -2 4 14 17 18 15 26 29 22 37 -6 9 -11 9 -21 1 -10 -8 -14 -7
-18 2 -4 9 -11 7 -24 -8 -34 -41 -114 -104 -124 -98 -16 9 24 64 51 70 50 11
60 15 60 25 0 5 -8 9 -17 9 -16 1 -16 2 1 15 11 8 16 15 11 15 -4 0 -1 8 8 18
22 24 12 33 -26 25 -27 -5 -30 -4 -23 13 17 42 16 43 -54 29 l-35 -7 34 29
c24 21 31 32 22 37 -6 4 -20 2 -29 -5 -14 -11 -15 -11 -4 1 30 35 0 41 -36 8
l-24 -23 7 30 c4 17 12 34 16 39 17 19 9 28 -21 24 -29 -4 -30 -4 -24 29 7 39
6 39 -40 13 -29 -16 -34 -16 -29 -4 3 9 0 20 -8 25 -11 7 -11 9 4 9 12 0 17 8
17 30 0 36 -15 38 -49 8 -23 -20 -22 -19 2 8 18 20 25 34 18 38 -6 4 -15 4
-21 1 -5 -3 -10 -1 -10 4 0 20 -19 11 -25 -11 -8 -24 -60 -78 -76 -78 -5 0 -9
5 -9 11 0 5 -6 7 -12 4 -7 -4 -1 3 15 15 15 12 27 26 27 32 0 6 13 27 30 48
33 42 31 52 -11 43 -32 -6 -34 -2 -18 29 7 14 8 23 0 31 -7 7 -26 -5 -62 -37
-58 -52 -73 -57 -59 -20 13 33 13 34 -5 34 -8 0 -17 -11 -21 -25 -3 -14 -10
-25 -15 -25 -21 0 -6 25 46 74 51 48 68 76 47 76 -5 0 -17 -9 -27 -20 -34 -37
-40 -23 -18 38 3 6 -2 12 -11 12 -9 0 -19 -14 -25 -32 -5 -18 -10 -28 -10 -21
-1 8 -14 10 -38 7 l-38 -6 38 37 c28 27 36 40 28 48 -8 8 -20 3 -42 -19 -23
-21 -30 -24 -26 -11 18 50 19 67 4 67 -8 0 -17 5 -19 12 -3 8 -15 4 -38 -12
-21 -15 -32 -19 -28 -9 16 43 18 58 7 64 -6 4 -14 4 -18 -1 -10 -15 -48 -33
-55 -27 -3 4 3 17 15 29 32 34 3 42 -32 8 -16 -15 -29 -23 -29 -16 0 6 9 20
21 31 12 11 18 24 14 30 -9 16 -45 13 -45 -3 0 -7 -8 -20 -17 -27 -15 -12 -16
-12 -10 4 18 48 19 67 4 67 -9 0 -18 -13 -22 -30 -9 -43 -24 -28 -19 20 3 30
0 40 -11 40 -7 0 -17 -4 -20 -10 -3 -5 -13 -10 -20 -10 -10 0 -13 8 -9 28 4
21 0 30 -17 40 -19 12 -24 11 -52 -15 -22 -20 -28 -23 -24 -10 19 53 19 65 -3
72 -14 4 -29 1 -43 -12 l-22 -18 19 22 c15 19 16 25 6 38 -19 22 -35 18 -47
-12 -11 -27 -12 -26 -6 9 6 44 -16 61 -45 36 -36 -31 -41 -30 -31 4 12 43 12
41 -12 56 -19 12 -24 11 -46 -10 l-26 -23 6 38 c4 28 2 37 -9 37 -8 0 -14 -5
-14 -11 0 -5 -4 -7 -10 -4 -5 3 -16 3 -22 -2 -30 -18 -39 -10 -13 11 44 35 23
54 -22 20 -30 -23 -34 -24 -24 -6 6 12 16 24 22 27 7 5 6 11 -2 21 -17 21 -37
17 -41 -8 -2 -12 -8 -23 -15 -25 -9 -3 -10 4 -3 28 5 17 7 36 4 40 -10 17 -22
8 -28 -22 -8 -44 -26 -26 -20 21 6 47 -7 52 -44 18 l-24 -23 7 37 c6 31 4 38
-14 48 -18 9 -27 7 -51 -10 l-29 -20 10 32 c12 43 12 48 -5 48 -9 0 -19 -20
-27 -52 -11 -49 -13 -51 -22 -28 -5 14 -13 32 -17 41 -6 12 -3 22 11 35 10 9
19 21 19 26 0 16 -24 8 -52 -19 l-28 -26 10 34 c13 45 13 62 -2 57 -6 -2 -19
-29 -27 -59 -19 -64 -37 -99 -53 -99 -6 0 -1 11 11 24 31 33 17 55 -15 25 -23
-21 -24 -21 -24 -3 0 10 7 41 15 68 8 27 15 53 15 58 0 13 -22 9 -41 -8 -17
-15 -19 -14 -25 10 -7 28 -34 36 -34 11 0 -8 -4 -15 -10 -15 -5 0 -10 -9 -10
-20 0 -11 -6 -23 -14 -26 -8 -3 -18 -19 -21 -34 -4 -20 -11 -27 -21 -23 -17 6
-19 44 -2 61 7 7 8 12 3 12 -5 0 2 11 14 24 20 21 21 27 9 45 -18 30 -33 26
-46 -11 l-11 -33 6 39 c5 34 4 38 -11 33 -10 -4 -24 -7 -32 -7 -11 0 -13 -6
-9 -19 5 -16 2 -18 -15 -14 -15 4 -20 14 -20 39 0 40 -6 42 -36 13 l-22 -21
-7 31 c-8 36 -20 40 -35 11 -6 -11 -19 -24 -30 -30 -17 -9 -18 -8 -9 22 10 35
5 45 -25 50 -16 2 -23 -6 -32 -37 l-12 -40 -8 30 c-4 17 -7 38 -6 48 1 21 -21
22 -38 2 -15 -18 -30 -11 -30 15 0 31 -25 30 -39 -2 -10 -22 -16 -27 -25 -18
-6 6 -11 18 -11 28 0 9 -5 16 -12 15 -7 -2 -10 4 -7 12 8 21 -16 19 -32 -2
-12 -16 -13 -16 -7 4 5 21 2 22 -45 18 -44 -3 -49 -1 -45 14 3 13 -2 20 -17
24 -16 4 -24 1 -27 -14 -6 -23 -23 -15 -23 12 0 43 -27 16 -44 -42 -9 -34 -19
-59 -22 -56 -3 3 1 30 10 60 9 30 16 58 16 61 0 12 -24 6 -42 -11 -17 -16 -18
-15 -16 8 2 18 -2 25 -19 27 -16 2 -23 -2 -23 -12 0 -9 -4 -16 -10 -16 -5 0
-10 7 -10 15 0 9 -9 15 -25 15 -18 0 -23 4 -19 15 4 9 0 15 -10 15 -9 0 -16
-6 -16 -14 0 -8 -4 -17 -9 -20 -4 -3 -6 6 -3 21 4 22 2 25 -12 20 -10 -4 -24
-7 -32 -7 -8 0 -14 -7 -14 -15 0 -8 -7 -15 -15 -15 -10 0 -15 10 -15 28 0 40
-10 46 -36 21 l-22 -20 -10 30 c-12 35 -27 40 -35 12 -2 -10 -15 -24 -27 -31
-20 -11 -21 -10 -14 12 13 42 10 53 -18 56 -22 3 -27 -2 -33 -27 -12 -55 -32
-31 -27 32 2 22 -16 22 -40 0 -21 -18 -28 -15 -31 16 -2 29 -21 27 -37 -4 -10
-18 -19 -24 -33 -19 -17 5 -18 2 -12 -35 9 -52 0 -80 -26 -78 -13 1 -18 6 -14
17 4 8 12 35 18 60 7 25 18 50 26 56 15 12 6 38 -10 29 -5 -4 -9 1 -9 10 0 11
-5 15 -15 11 -8 -3 -15 -1 -15 4 0 6 -7 10 -15 10 -8 0 -15 -4 -15 -10 0 -5
-7 -7 -17 -3 -14 5 -15 1 -10 -24 9 -45 -10 -103 -33 -103 -16 0 -17 4 -10 30
6 20 5 30 -2 30 -6 0 -7 8 -3 18 12 31 15 81 5 87 -6 4 -17 -1 -26 -9 -21 -22
-32 -20 -36 6 -6 43 -25 27 -48 -44 -23 -70 -24 -72 -34 -45 -14 38 -40 36
-31 -3 4 -19 3 -30 -4 -30 -16 0 -13 37 8 108 18 57 18 63 3 60 -8 -2 -20 -19
-25 -38 l-10 -35 -10 38 c-5 22 -15 37 -24 37 -11 0 -14 -7 -9 -26 7 -26 -2
-39 -46 -64 -15 -9 -17 -8 -9 12 20 55 22 78 6 78 -9 0 -18 -12 -22 -30 -3
-16 -9 -30 -13 -30 -4 0 -10 14 -13 30 -6 25 -11 30 -35 30 -24 0 -31 -6 -39
-32 l-10 -33 -13 33 c-6 17 -19 32 -27 32 -8 0 -11 -4 -8 -10 3 -5 2 -10 -4
-10 -5 0 -13 -9 -16 -20 -10 -32 -25 -23 -18 11 8 44 -16 35 -33 -12 l-12 -34
-1 38 c-1 30 -5 37 -21 37 -16 0 -20 -7 -21 -37 l-2 -38 -10 38 c-13 46 -42
53 -32 7 4 -17 2 -30 -3 -30 -5 0 -15 14 -22 30 -16 39 -33 38 -52 -2 l-15
-33 -7 33 c-6 27 -12 32 -36 32 -23 0 -30 -5 -35 -30 -4 -16 -10 -30 -15 -30
-4 0 -10 14 -13 30 -5 24 -12 30 -32 30 -17 0 -25 -5 -25 -17 0 -10 -5 -25
-11 -33 -8 -11 -9 -7 -4 18 6 30 5 32 -20 32 -25 0 -27 -2 -22 -32 l6 -33 -15
33 c-20 45 -54 41 -67 -8 l-10 -35 -10 38 c-8 32 -13 37 -38 37 -22 0 -30 -6
-35 -25 -5 -20 -9 -23 -20 -14 -8 6 -14 18 -14 25 0 25 -28 14 -42 -16 -7 -16
-17 -30 -22 -30 -5 0 -6 14 -3 30 8 38 -18 42 -27 5 -4 -14 -11 -23 -15 -20
-5 3 -7 14 -4 25 4 16 0 20 -19 20 -22 0 -24 -4 -21 -37 2 -30 1 -34 -6 -18
-5 11 -12 28 -15 38 -8 26 -26 21 -26 -8 0 -14 -4 -25 -10 -25 -5 0 -10 5 -10
11 0 17 -27 39 -49 39 -12 0 -21 -6 -21 -12 0 -10 -2 -10 -9 0 -4 8 -21 12
-37 10 -22 -2 -30 -10 -38 -38 l-10 -35 -4 38 c-2 28 -8 37 -22 37 -14 0 -20
-9 -22 -37 l-4 -38 -10 35 c-8 28 -16 36 -38 38 -16 2 -33 -2 -37 -10 -7 -10
-9 -10 -9 0 0 6 -9 12 -21 12 -22 0 -49 -22 -49 -39 0 -6 -4 -11 -10 -11 -5 0
-10 11 -10 25 0 29 -18 34 -26 8 -3 -10 -10 -27 -15 -38 -7 -16 -8 -12 -6 18
3 33 1 37 -21 37 -19 0 -23 -4 -19 -20 3 -11 1 -22 -4 -25 -4 -3 -11 6 -15 20
-9 37 -35 33 -27 -5 3 -16 2 -30 -3 -30 -5 0 -15 14 -22 30 -14 30 -42 41 -42
16 0 -7 -6 -19 -14 -25 -11 -9 -15 -6 -20 14 -5 19 -13 25 -35 25 -25 0 -30
-5 -38 -37 l-10 -38 -10 35 c-13 49 -47 53 -67 8 l-15 -33 6 33 c5 30 3 32
-22 32 -25 0 -26 -2 -20 -32 5 -25 4 -29 -4 -18 -6 8 -11 23 -11 33 0 12 -8
17 -25 17 -20 0 -27 -6 -31 -30 -4 -16 -10 -30 -14 -30 -4 0 -10 14 -13 30 -6
25 -11 30 -36 30 -25 0 -30 -5 -37 -32 l-7 -33 -15 33 c-19 40 -36 41 -52 2
-7 -16 -17 -30 -22 -30 -5 0 -7 13 -3 30 10 46 -19 39 -32 -7 l-10 -38 -2 38
c-1 30 -5 37 -21 37 -16 0 -20 -7 -21 -37 l-1 -38 -12 34 c-17 47 -41 56 -33
12 7 -34 -8 -43 -18 -11 -3 11 -11 20 -16 20 -6 0 -7 5 -4 10 3 6 0 10 -8 10
-8 0 -21 -15 -27 -32 l-13 -33 -10 33 c-8 26 -15 32 -39 32 -24 0 -29 -5 -34
-30 -4 -16 -10 -30 -14 -30 -4 0 -10 14 -13 30 -4 18 -13 30 -22 30 -16 0 -14
-23 6 -78 8 -20 6 -21 -9 -12 -44 25 -53 38 -46 64 5 19 2 26 -9 26 -9 0 -19
-15 -24 -37 l-10 -38 -10 35 c-5 19 -17 36 -25 38 -15 3 -15 -3 3 -60z m443
-843 c14 -22 15 -32 5 -68 -20 -70 -32 -76 -76 -37 -50 44 -56 55 -49 96 7 33
8 34 55 34 41 0 51 -4 65 -25z m2032 -9 c7 -41 1 -52 -49 -96 -44 -39 -56 -33
-76 37 -10 36 -9 46 5 68 14 21 24 25 65 25 47 0 48 -1 55 -34z m-2476 -132
c66 -8 80 -18 80 -55 0 -23 -28 -122 -55 -198 -12 -32 -144 211 -145 268 0 2
15 1 33 -3 17 -3 57 -8 87 -12z m1265 -60 c16 -55 19 -86 15 -152 l-5 -83 -25
41 c-14 22 -28 40 -31 40 -3 0 -17 39 -29 86 l-23 86 29 28 c16 16 33 28 39
26 5 -1 19 -34 30 -72z m337 47 l31 -29 -23 -86 c-12 -47 -26 -86 -29 -86 -3
0 -17 -18 -31 -40 l-25 -41 -5 83 c-5 76 5 138 34 215 7 19 13 17 48 -16z
m1318 27 c-2 -57 -133 -299 -145 -267 -25 69 -55 174 -55 192 0 40 17 52 92
63 79 12 108 15 108 12z m-1497 -88 c25 -87 24 -336 0 -379 -10 -17 -20 -31
-23 -31 -3 0 -13 14 -22 31 -25 43 -26 292 -1 379 9 33 19 60 23 60 4 0 14
-27 23 -60z m-2390 -41 c53 -27 114 -79 92 -79 -27 0 -16 -20 15 -26 16 -4 27
-10 25 -14 -3 -5 0 -21 5 -36 15 -39 7 -40 -34 -4 -45 40 -69 30 -29 -12 l28
-31 -36 6 c-29 4 -37 1 -45 -16 -8 -18 -6 -27 15 -49 l25 -28 -25 0 c-23 0
-27 8 -57 109 -28 97 -42 201 -27 201 3 0 25 -10 48 -21z m1845 -34 c2 -34 -5
-53 -54 -127 l-58 -88 -54 83 c-58 86 -78 142 -58 155 19 12 139 27 181 22 39
-5 40 -6 43 -45z m1273 22 c13 -19 -10 -74 -63 -154 l-54 -83 -58 88 c-49 74
-56 93 -54 127 3 39 4 40 43 45 49 6 178 -10 186 -23z m1669 -13 c0 -25 -14
-95 -32 -155 -30 -101 -34 -109 -57 -109 l-25 0 25 28 c21 22 23 31 15 49 -8
17 -16 20 -45 16 l-36 -6 28 31 c40 42 16 52 -29 12 -41 -36 -49 -35 -34 4 5
15 8 31 5 36 -3 5 7 10 22 12 29 3 45 28 18 28 -31 0 103 98 138 100 4 0 7
-21 7 -46z m-4953 19 c6 -15 -21 -142 -36 -170 -4 -8 -30 10 -74 52 -37 35
-67 68 -67 72 0 5 24 21 53 35 61 31 115 36 124 11z m5188 -10 c30 -15 55 -31
55 -36 0 -10 -133 -138 -138 -133 -11 12 -43 152 -38 172 9 33 50 32 121 -3z
m-2946 -74 c28 -22 51 -45 51 -49 0 -5 27 -51 60 -102 l60 -92 0 -100 c0 -95
-4 -113 -77 -363 -42 -145 -80 -260 -83 -256 -4 5 -32 96 -63 205 l-57 196 0
241 c0 194 3 253 17 301 9 33 22 60 28 60 7 0 35 -18 64 -41z m674 -19 c14
-48 17 -107 17 -301 l0 -241 -57 -196 c-31 -109 -59 -200 -63 -205 -3 -4 -41
111 -83 256 -73 250 -77 268 -77 363 l0 100 60 92 c33 51 60 97 60 102 0 11
100 90 115 90 6 0 19 -27 28 -60z m-3519 -2 c3 -13 6 -54 6 -92 l0 -69 -42 35
c-24 19 -60 57 -80 84 l-38 49 38 6 c83 14 109 11 116 -13z m1312 -25 c58 -52
88 -115 82 -172 l-3 -31 -50 24 c-46 22 -182 132 -196 159 -4 7 -10 22 -13 34
-6 19 -3 22 26 26 90 11 97 9 154 -40z m920 -19 l74 -66 0 -157 c0 -132 -3
-167 -21 -222 -11 -35 -23 -70 -25 -78 -3 -9 -39 37 -86 110 -73 112 -84 136
-120 258 -39 132 -39 134 -20 153 15 15 102 63 121 67 2 1 37 -29 77 -65z
m1936 41 c96 -44 95 -42 50 -197 -36 -121 -47 -145 -120 -257 -47 -73 -83
-119 -86 -110 -2 8 -14 43 -25 78 -18 55 -21 90 -21 222 l0 157 73 66 c39 36
73 66 73 66 1 0 26 -11 56 -25z m975 11 c23 -22 -117 -164 -210 -213 -55 -29
-57 -29 -57 11 0 61 28 117 83 168 l52 49 65 -6 c35 -3 66 -7 67 -9z m1240 6
l43 -7 -38 -49 c-20 -27 -56 -65 -79 -84 l-43 -35 0 69 c0 100 6 114 44 113
17 0 50 -4 73 -7z m-4785 -73 c55 -26 73 -40 93 -75 19 -32 24 -51 19 -71 -8
-29 -72 -133 -83 -133 -16 1 -43 32 -93 109 l-55 84 14 46 c19 64 21 71 29 71
4 0 38 -14 76 -31z m3179 -31 l16 -56 -53 -82 c-49 -75 -78 -109 -95 -110 -11
0 -75 104 -83 133 -12 50 28 104 109 143 38 19 74 33 79 31 6 -2 18 -28 27
-59z m-4428 22 l66 -30 26 -87 c15 -49 30 -101 36 -117 5 -16 9 -56 9 -89 l0
-60 -42 37 c-24 20 -61 51 -83 68 -41 32 -155 197 -155 223 0 10 67 84 76 85
1 0 31 -13 67 -30z m5680 -6 c20 -19 37 -41 37 -49 0 -27 -113 -191 -154 -222
-22 -18 -60 -49 -83 -69 l-43 -37 0 58 c0 50 47 243 69 283 6 10 113 69 131
71 3 1 22 -15 43 -35z m-6110 -143 c48 -11 87 -47 87 -78 0 -12 -5 -43 -12
-68 -15 -56 -28 -54 -110 19 -54 47 -58 54 -58 93 0 40 2 43 28 43 15 0 44 -4
65 -9z m6527 -34 c0 -39 -4 -46 -58 -93 -82 -73 -95 -75 -110 -19 -7 25 -12
56 -12 68 0 47 63 82 153 86 25 1 27 -1 27 -42z m-6762 1 c44 -19 56 -31 77
-72 14 -27 23 -51 22 -52 -18 -18 -220 69 -225 97 -2 9 11 22 30 31 42 21 35
22 96 -4z m1042 -98 l45 -41 -42 5 c-49 7 -56 -5 -21 -34 l23 -18 -28 -13
c-37 -17 -34 -27 11 -34 96 -14 172 -52 142 -70 -13 -8 -109 -8 -152 0 -31 6
-38 4 -38 -8 0 -11 12 -17 38 -19 29 -3 33 -6 19 -12 -21 -10 -84 14 -134 51
l-33 24 0 98 c0 54 5 113 11 132 6 19 13 40 15 47 4 14 42 -14 144 -108z m225
98 c44 -22 45 -23 45 -71 0 -56 2 -56 -105 -5 -91 42 -97 53 -44 77 56 25 51
25 104 -1z m382 -5 l62 -28 1 -94 c0 -52 -2 -92 -4 -90 -2 2 -38 57 -80 122
-85 131 -83 136 21 90z m3627 -90 c-42 -65 -78 -120 -80 -122 -2 -2 -4 38 -4
90 l1 94 57 27 c109 51 112 43 26 -89z m461 97 c58 -25 52 -35 -40 -78 -107
-51 -105 -51 -105 5 0 48 1 50 43 70 52 27 46 27 102 3z m283 -36 c7 -23 12
-84 12 -137 l0 -96 -32 -24 c-51 -37 -114 -61 -135 -51 -14 6 -10 9 20 12 25
2 37 8 37 19 0 12 -7 14 -37 8 -53 -10 -144 -8 -156 4 -6 6 2 17 24 30 32 20
43 23 122 36 44 7 47 17 10 34 l-28 13 23 18 c35 29 28 41 -20 34 -39 -6 -42
-5 -28 9 43 45 166 145 171 139 3 -4 11 -26 17 -48z m977 39 c22 -10 35 -23
33 -33 -5 -27 -207 -114 -225 -96 -1 1 8 25 22 52 20 39 34 53 72 71 60 27 55
26 98 6z m-7533 -68 c9 -11 11 -125 3 -125 -13 0 -104 51 -111 61 -4 7 4 22
19 35 41 35 33 61 -9 29 -29 -22 -34 -18 -24 16 8 27 7 32 -13 37 -18 5 -14 8
18 12 35 5 45 2 75 -25 19 -16 38 -34 42 -40z m8106 64 c26 0 26 -1 5 -9 -19
-8 -21 -13 -13 -39 10 -34 4 -38 -24 -16 -42 32 -50 6 -9 -29 15 -13 23 -28
19 -35 -7 -10 -98 -61 -111 -61 -3 0 -5 27 -5 59 0 57 2 61 43 100 23 23 48
39 55 36 8 -3 26 -5 40 -6z m-7887 -55 c57 -28 89 -56 89 -77 0 -3 -9 -3 -20
0 -27 7 -26 -14 2 -37 l23 -18 -28 -13 c-15 -7 -27 -15 -27 -19 0 -10 37 -20
73 -20 15 0 27 -1 27 -3 0 -1 4 -17 10 -36 l9 -33 -67 4 -67 3 -67 103 c-78
118 -83 127 -92 164 -6 26 -5 27 31 21 20 -3 67 -21 104 -39z m7673 19 c-9
-37 -14 -46 -93 -168 -37 -58 -70 -103 -73 -100 -3 3 -31 2 -62 -3 -31 -5 -58
-6 -60 -3 -2 3 1 21 6 39 7 26 14 32 36 32 35 0 72 10 72 20 0 4 -12 12 -27
19 l-28 13 23 18 c28 23 29 44 2 37 -23 -6 -24 -3 -9 24 11 22 134 85 177 92
15 2 30 5 35 6 4 0 4 -11 1 -26z m-5205 -73 c47 -72 100 -204 88 -217 -3 -2
-16 1 -29 8 -31 16 -198 162 -198 172 0 5 14 28 30 52 17 24 30 48 30 54 0 31
34 2 79 -69z m2706 27 c16 -28 30 -57 30 -64 0 -13 -157 -153 -193 -172 -13
-7 -26 -10 -29 -8 -2 3 5 35 16 71 21 70 115 226 134 226 7 0 25 -24 42 -53z
m-4395 -62 c46 -40 97 -112 86 -122 -5 -5 -149 54 -183 75 -10 6 -9 20 4 60
19 58 10 59 93 -13z m6084 -21 c6 -18 -4 -26 -83 -62 -87 -41 -117 -50 -109
-34 27 56 50 85 102 129 l61 53 11 -33 c6 -17 14 -41 18 -53z m-5853 -27 c59
-50 108 -96 108 -100 1 -9 -116 0 -132 10 -14 8 -104 148 -110 171 -9 36 12
23 134 -81z m2186 -25 l82 -127 65 -225 c36 -124 72 -247 80 -274 l15 -49 -27
25 c-15 14 -99 87 -187 162 -294 253 -275 220 -225 388 33 113 88 228 109 228
3 0 43 -58 88 -128z m1273 78 c19 -30 48 -103 70 -178 50 -168 69 -135 -225
-388 -88 -75 -172 -149 -188 -163 l-27 -25 9 29 c13 39 137 463 144 492 6 26
168 283 178 283 4 0 21 -23 39 -50z m2192 27 c-4 -13 -29 -58 -57 -99 l-50
-76 -63 -7 c-56 -6 -84 -3 -71 8 2 2 55 47 116 100 62 54 117 97 122 97 5 0 6
-11 3 -23z m-4010 -4 c8 -10 59 -87 113 -171 64 -100 94 -157 88 -163 -6 -6
-38 3 -90 26 l-79 36 -32 112 c-43 148 -42 209 0 160z m2268 -15 c0 -18 -14
-83 -32 -145 l-32 -112 -79 -36 c-52 -23 -84 -32 -90 -26 -6 6 24 63 88 163
131 204 145 220 145 156z m-3100 -60 c80 -24 163 -78 146 -95 -12 -12 -165
-29 -208 -24 l-43 6 -3 67 -3 67 38 -5 c21 -3 54 -11 73 -16z m1970 0 c5 -13
51 -171 104 -353 90 -312 94 -333 86 -387 -4 -31 -16 -64 -27 -75 -10 -10 -54
-76 -98 -146 -44 -70 -82 -127 -85 -127 -3 0 -41 57 -85 127 -44 70 -88 136
-98 146 -11 11 -23 44 -27 75 -8 54 -4 75 86 387 104 362 109 375 124 375 6 0
15 -10 20 -22z m2038 -45 l-3 -68 -43 -6 c-43 -5 -196 12 -208 24 -28 28 121
97 249 116 4 0 7 -29 5 -66z m-6138 -13 c57 -83 92 -145 104 -182 l13 -45 -72
31 c-44 19 -97 53 -135 87 l-63 56 23 37 c22 37 23 37 74 31 28 -4 53 -11 56
-15z m8291 -16 l22 -37 -63 -56 c-38 -34 -91 -68 -135 -87 l-72 -31 14 45 c7
26 35 79 61 119 48 74 51 76 129 81 15 2 28 -9 44 -34z m-8026 -86 c51 -26
102 -71 98 -85 -2 -6 8 -13 22 -17 32 -8 32 -20 -2 -35 -41 -19 -14 -35 29
-17 34 15 36 14 59 -10 20 -21 21 -27 9 -34 -8 -5 -23 -10 -33 -10 -36 0 -220
31 -238 40 -21 12 -59 128 -59 183 l0 36 38 -16 c20 -8 55 -24 77 -35z m7725
-87 c-13 -43 -28 -75 -39 -81 -20 -10 -190 -40 -231 -40 -14 0 -32 5 -40 10
-12 7 -11 13 9 34 23 24 25 25 59 10 43 -18 70 -2 29 17 -34 15 -34 25 -1 33
14 4 24 12 22 18 -7 19 55 66 133 102 l74 33 3 -33 c2 -18 -6 -65 -18 -103z
m-6775 104 c13 -3 53 -56 110 -147 73 -117 93 -156 112 -227 12 -47 47 -168
76 -267 l54 -182 -193 168 c-107 93 -202 175 -212 182 -11 7 -72 95 -136 195
l-117 182 12 39 11 39 97 15 c87 14 130 15 186 3z m5931 -6 l81 -11 12 -39 12
-40 -117 -182 c-64 -100 -125 -188 -136 -195 -10 -7 -105 -89 -212 -182 l-193
-168 54 182 c29 99 64 220 76 267 23 86 25 89 202 367 5 7 93 20 115 16 14 -2
62 -8 106 -15z m-4813 -47 c7 -36 3 -60 -22 -140 -17 -54 -33 -109 -37 -125
-3 -15 -10 -30 -16 -33 -5 -3 -41 23 -81 59 -40 35 -84 71 -99 81 -27 18 -58
80 -58 117 0 37 167 91 270 86 32 -2 35 -5 43 -45z m326 28 c97 -15 148 -28
189 -49 l57 -29 63 -215 63 -216 -1 -372 c0 -205 -1 -374 -3 -375 -1 -1 -58
86 -127 194 -69 107 -162 252 -208 321 l-82 126 -80 270 -79 270 31 48 c16 26
33 47 38 47 4 0 67 -9 139 -20z m3019 -28 l31 -47 -79 -270 -79 -270 -83 -126
c-46 -69 -139 -214 -208 -321 l-125 -196 -5 367 -5 366 65 224 65 223 58 29
c42 22 91 35 180 48 67 10 129 19 138 20 10 1 30 -19 47 -47z m279 37 c100
-15 183 -50 183 -78 0 -37 -31 -99 -58 -117 -15 -10 -60 -46 -100 -82 -42 -38
-76 -61 -81 -56 -18 19 -74 221 -74 265 0 86 1 87 130 68z m-4390 -51 c29 -13
53 -28 53 -35 0 -6 19 -14 42 -18 l42 -7 -38 -20 c-56 -29 -32 -44 27 -18 43
19 49 20 77 5 17 -9 28 -20 24 -26 -3 -6 -33 -22 -65 -36 -32 -14 -59 -29 -59
-33 0 -16 14 -17 47 -4 l35 15 -21 -34 c-19 -31 -19 -47 0 -47 4 0 18 19 32
43 14 23 37 53 51 66 l26 25 58 -28 58 -28 79 -276 80 -277 -5 -369 -5 -370
-193 301 c-107 166 -197 303 -201 305 -5 2 -50 147 -101 323 -51 176 -97 324
-101 330 -11 11 -12 235 -1 235 4 0 31 -10 59 -22z m5093 -88 c0 -61 -4 -118
-10 -128 -5 -9 -51 -159 -101 -332 -51 -173 -95 -316 -100 -318 -4 -2 -94
-139 -201 -305 l-193 -301 -5 370 -5 369 80 277 79 276 58 28 58 28 26 -25
c14 -13 37 -43 51 -66 14 -24 28 -43 32 -43 19 0 19 16 0 47 l-21 34 35 -15
c33 -13 47 -12 47 4 0 4 -27 19 -60 34 -32 15 -62 31 -65 36 -3 6 9 17 28 26
32 15 36 15 77 -6 28 -14 46 -18 52 -12 7 7 -2 17 -27 30 l-38 19 42 7 c22 3
41 12 41 19 0 12 82 54 108 56 9 1 12 -27 12 -109z m-7211 58 c31 -28 32 -30
12 -35 -38 -10 -23 -31 27 -38 54 -8 86 -26 103 -57 11 -21 11 -21 -72 -15
-53 4 -88 12 -98 21 -15 16 -51 118 -51 149 0 25 34 14 79 -25z m1365 -2 c11
-24 16 -62 16 -130 0 -53 -2 -96 -4 -96 -4 0 -150 65 -182 81 -11 6 -28 23
-37 38 -16 27 -16 29 14 57 29 28 158 94 170 88 4 -2 14 -19 23 -38z m6723
-49 c32 -30 32 -31 16 -58 -10 -16 -31 -35 -48 -43 -62 -30 -167 -76 -172 -76
-3 0 -3 48 -1 108 2 83 7 113 21 134 l18 26 67 -30 c37 -17 81 -45 99 -61z
m1253 77 c0 -32 -33 -129 -49 -147 -12 -12 -40 -19 -100 -24 -83 -6 -83 -6
-72 15 17 31 49 49 104 57 49 7 64 28 26 38 -20 5 -19 7 12 35 49 42 79 52 79
26z m-8429 -205 c86 -11 96 -14 91 -31 -5 -22 14 -24 26 -2 7 12 18 14 55 9
l46 -7 121 -188 c66 -103 120 -192 120 -199 0 -7 32 -121 71 -253 39 -132 69
-242 66 -244 -2 -2 -98 77 -213 177 l-209 181 -123 191 c-67 106 -128 199
-136 208 -13 16 -56 145 -56 169 0 8 9 10 23 7 12 -3 65 -11 118 -18z m2921
-7 c15 -15 123 -110 242 -212 l215 -185 0 -397 c1 -240 -3 -398 -8 -400 -6 -1
-72 -214 -147 -472 -76 -258 -139 -465 -141 -460 -1 5 -63 216 -137 468 -74
252 -139 462 -145 465 -7 5 -11 158 -11 476 l-1 470 31 105 c57 195 54 191
102 142z m1657 -4 c5 -18 24 -80 41 -138 l31 -105 -1 -470 c0 -312 -4 -471
-11 -475 -5 -4 -71 -213 -145 -466 -74 -252 -136 -463 -137 -468 -2 -5 -65
202 -140 460 -76 258 -142 471 -148 472 -5 2 -9 159 -8 400 l0 397 215 185
c119 102 227 197 242 212 35 36 48 35 61 -4z m3001 21 c0 -23 -43 -153 -56
-168 -8 -9 -69 -102 -136 -208 l-123 -191 -209 -181 c-115 -100 -211 -179
-213 -177 -2 2 28 112 66 244 39 132 71 246 71 253 0 7 54 96 120 199 l121
188 46 7 c37 5 48 3 55 -9 12 -21 30 -20 26 2 -3 15 12 19 102 33 135 21 130
21 130 8z m-8631 -15 c39 -8 101 -67 130 -125 12 -24 33 -59 48 -76 31 -40 22
-41 -59 -4 -63 28 -217 153 -238 191 -10 19 -7 20 38 20 27 0 64 -3 81 -6z
m9661 -14 c-20 -38 -175 -163 -239 -192 -35 -16 -66 -27 -69 -23 -3 3 4 18 16
33 12 15 32 47 44 72 27 53 90 117 121 123 12 2 48 5 80 6 54 1 57 0 47 -19z
m-8867 -75 c83 -72 102 -95 200 -248 59 -94 106 -171 105 -173 -2 -2 -86 35
-186 80 -176 81 -187 87 -302 187 -105 90 -120 106 -120 133 0 29 5 33 73 63
65 29 109 42 130 39 4 -1 49 -37 100 -81z m8185 42 c68 -29 72 -32 72 -62 0
-29 -13 -44 -119 -135 -116 -99 -126 -106 -303 -186 -100 -46 -184 -82 -186
-80 -1 2 46 79 105 172 98 155 116 177 202 251 108 94 105 93 229 40z m-8559
-111 c12 -14 55 -156 49 -161 -9 -9 -161 24 -175 38 -15 15 -15 18 1 42 22 33
88 94 102 95 6 0 17 -6 23 -14z m8773 -21 c21 -19 45 -46 54 -60 16 -24 16
-27 1 -42 -14 -14 -166 -47 -175 -38 -6 5 37 147 49 161 17 21 30 17 71 -21z
m-7387 -104 c22 -21 140 -124 263 -230 122 -106 227 -202 233 -214 6 -12 119
-189 250 -394 132 -204 239 -380 239 -390 0 -14 244 -862 265 -921 3 -7 0 -10
-6 -7 -5 4 -168 144 -362 312 -194 168 -359 308 -368 310 -8 2 -121 169 -250
370 -129 202 -244 378 -255 392 -14 16 -58 148 -120 351 -92 308 -98 331 -101
432 l-4 107 88 -40 c48 -22 106 -58 128 -78z m6142 7 c-3 -96 -11 -126 -101
-427 -73 -240 -105 -334 -126 -360 -15 -20 -130 -197 -256 -393 -126 -196
-235 -359 -244 -361 -8 -2 -173 -142 -367 -310 -194 -168 -357 -308 -362 -312
-6 -3 -9 0 -6 7 21 60 265 906 265 921 0 10 107 186 239 390 131 205 244 382
250 394 6 12 126 122 266 245 207 180 271 231 338 265 45 23 88 42 95 42 10 1
12 -21 9 -101z m-8109 36 c23 -19 51 -49 63 -66 l23 -31 -56 6 c-58 7 -168 50
-168 66 0 5 4 21 10 35 8 22 16 26 48 26 30 0 48 -8 80 -36z m300 -31 c56 -25
101 -48 99 -49 -4 -5 -202 -34 -226 -34 -21 0 -91 101 -91 131 0 27 101 5 218
-48z m9450 -20 c-18 -30 -39 -57 -46 -60 -6 -3 -65 3 -129 13 l-118 17 95 45
c106 50 223 78 228 55 2 -8 -11 -39 -30 -70z m242 61 c15 -39 13 -43 -37 -66
-58 -25 -173 -50 -173 -36 0 5 27 36 59 69 53 53 64 59 100 59 35 0 43 -4 51
-26z m-6655 -185 c22 -20 41 -41 43 -48 1 -6 112 -182 247 -391 134 -210 242
-386 240 -393 -2 -7 73 -276 169 -599 95 -324 169 -588 164 -588 -4 0 -9 -295
-10 -656 l-3 -655 -354 550 c-194 303 -359 551 -365 551 -7 0 -84 247 -184
587 -95 323 -177 590 -182 593 -6 4 -10 183 -10 480 l-1 475 36 120 c19 66 35
121 35 124 0 4 108 -88 175 -150z m3401 25 l35 -119 -1 -475 c0 -293 -4 -476
-10 -480 -5 -3 -87 -270 -182 -593 -100 -340 -177 -587 -184 -587 -6 0 -171
-248 -365 -551 l-354 -550 -5 668 -5 668 167 577 c93 317 168 584 168 594 0 9
108 185 240 390 132 206 241 380 243 386 2 12 210 198 215 193 1 -1 18 -56 38
-121z m-6163 -77 c115 -99 122 -108 232 -279 l114 -177 -42 19 c-336 148 -322
140 -481 277 -137 118 -217 205 -202 221 6 5 204 38 246 41 8 0 68 -46 133
-102z m8974 84 c62 -9 115 -20 119 -23 15 -16 -65 -103 -202 -221 -146 -126
-152 -130 -304 -198 -85 -39 -169 -76 -187 -84 -29 -12 -23 -1 82 163 110 171
118 181 232 279 65 57 125 102 133 102 8 0 65 -8 127 -18z m-8737 -26 c30 -4
60 -11 65 -15 6 -4 111 -54 235 -110 123 -56 229 -108 235 -115 5 -7 120 -108
255 -225 148 -127 253 -226 266 -248 11 -20 92 -147 179 -282 87 -135 168
-262 181 -282 l24 -37 -73 33 c-244 111 -584 264 -597 269 -8 2 -125 100 -259
216 -134 116 -251 217 -261 224 -9 7 -75 102 -145 212 -70 110 -134 207 -140
215 -11 12 -55 140 -55 157 0 2 8 2 18 -1 9 -2 42 -8 72 -11z m8330 11 c0 -16
-45 -144 -55 -156 -6 -8 -69 -105 -140 -215 -70 -110 -135 -205 -145 -212 -10
-7 -127 -108 -261 -224 -134 -116 -251 -214 -259 -216 -8 -3 -134 -60 -280
-126 -146 -66 -293 -133 -327 -148 l-63 -28 24 37 c13 20 94 147 181 282 87
135 168 262 179 282 13 22 118 121 266 248 135 117 250 218 255 225 6 7 81 45
167 83 85 39 193 89 239 111 46 22 111 44 144 49 33 5 63 10 68 11 4 0 7 -1 7
-3z m-9489 -77 c68 -33 80 -43 66 -50 -29 -17 -20 -32 16 -25 27 5 38 2 53
-15 l19 -21 -30 5 c-16 4 -52 9 -80 13 -67 9 -99 27 -130 71 -50 75 -32 79 86
22z m475 -34 c53 -24 109 -63 189 -132 62 -54 108 -99 102 -101 -7 -1 -73 6
-147 17 -115 17 -150 27 -243 68 -129 57 -140 74 -82 125 43 38 74 57 93 58 7
0 47 -16 88 -35z m9730 22 c12 -7 38 -27 59 -45 58 -51 47 -68 -82 -125 -95
-42 -126 -50 -262 -71 -131 -19 -151 -20 -134 -7 10 9 64 55 120 104 68 58
125 98 174 121 82 38 95 41 125 23z m-10119 -126 c7 -1 10 -8 6 -18 -5 -13 -2
-15 15 -10 12 4 32 10 44 14 l22 6 -22 -31 c-16 -21 -19 -33 -11 -38 11 -6 48
31 49 49 0 23 34 0 65 -45 35 -53 35 -53 13 -60 -13 -3 -43 -6 -66 -7 -41 -1
-50 4 -133 76 -49 42 -89 78 -89 78 0 1 21 -2 48 -6 26 -4 52 -8 59 -8z m5079
-123 l35 -57 -65 -102 -66 -102 0 204 0 204 30 -45 c17 -25 47 -71 66 -102z
m322 -156 l-3 -97 -63 99 -63 98 52 82 c28 44 57 89 63 99 13 20 19 -109 14
-281z m5092 295 c0 -2 -40 -38 -89 -80 -94 -81 -111 -87 -194 -68 l-27 6 35
53 c31 45 65 68 65 45 1 -18 38 -55 49 -49 8 5 5 17 -11 38 l-22 31 22 -6 c12
-4 31 -10 42 -13 14 -5 20 -2 20 9 0 11 13 18 38 22 38 6 65 12 70 14 1 0 2 0
2 -2z m-10618 -43 c13 -10 46 -38 73 -62 l48 -42 -49 6 c-54 7 -207 68 -225
90 -30 36 108 43 153 8z m10773 16 c22 -8 25 -13 16 -24 -18 -22 -171 -83
-225 -90 -27 -3 -48 -4 -45 -2 75 66 128 110 144 116 28 12 79 12 110 0z
m-10070 -169 l190 -28 231 -106 232 -105 211 -184 c116 -101 208 -184 204
-185 -5 -2 -129 14 -278 36 l-270 38 -232 106 -233 106 -143 123 c-121 104
-197 185 -197 211 0 3 17 8 38 10 20 2 42 4 47 5 6 1 96 -11 200 -27z m9506
19 c38 0 -42 -92 -188 -218 l-143 -122 -232 -107 -233 -106 -265 -39 c-146
-21 -271 -37 -278 -36 -6 2 27 37 75 78 48 41 142 123 209 182 l122 107 234
107 233 107 180 28 c99 15 200 26 224 23 24 -2 52 -4 62 -4z m-9889 -87 c87
-39 121 -62 219 -147 64 -56 116 -102 115 -103 -1 -1 -67 7 -146 18 -136 19
-153 24 -280 81 -74 34 -149 74 -167 89 l-31 27 86 40 c48 23 90 41 94 41 3 1
53 -20 110 -46z m10197 6 l89 -41 -31 -27 c-18 -15 -88 -54 -157 -86 -117 -54
-134 -59 -280 -81 -85 -12 -155 -22 -156 -21 -1 1 50 47 114 102 93 81 135
109 216 147 56 26 104 47 108 47 4 1 47 -17 97 -40z m-5095 -219 c53 -83 96
-158 96 -168 0 -9 77 -280 171 -602 110 -374 167 -586 160 -588 -8 -3 -11
-227 -11 -828 0 -681 -2 -824 -13 -824 -9 0 -86 -248 -240 -772 -125 -425
-235 -799 -243 -830 -9 -32 -20 -58 -23 -58 -4 0 -117 374 -251 830 -166 566
-247 830 -257 830 -11 0 -13 142 -13 824 0 602 -3 825 -11 828 -7 2 50 213
160 587 94 321 171 592 171 602 0 19 188 319 200 319 4 0 51 -68 104 -150z
m-5354 75 c25 -8 82 -31 128 -53 l83 -39 -118 -16 c-97 -13 -132 -13 -197 -4
-96 15 -110 29 -76 78 13 19 30 40 38 46 17 14 71 9 142 -12z m10653 1 c13
-13 29 -36 37 -50 20 -38 1 -51 -90 -65 -61 -8 -97 -7 -193 6 -64 9 -116 17
-115 18 23 18 224 98 262 104 76 13 75 13 99 -13z m-10177 -160 l181 -27 194
-89 c107 -50 187 -90 179 -90 -8 0 -103 -13 -211 -29 l-196 -30 -194 29 c-192
28 -195 29 -323 88 -70 34 -139 71 -152 83 l-25 23 28 14 c23 13 320 62 333
56 3 -1 87 -14 186 -28z m10068 -28 l27 -14 -25 -23 c-13 -13 -82 -50 -153
-83 -127 -59 -130 -60 -320 -88 l-193 -28 -197 29 c-109 15 -205 29 -213 29
-8 0 64 36 160 80 96 44 182 84 191 89 9 5 99 22 200 36 101 15 185 28 186 29
8 7 314 -44 337 -56z m-10554 -121 c19 -8 67 -30 105 -48 l70 -33 -113 -16
c-99 -14 -126 -15 -205 -3 -99 14 -169 32 -165 43 2 4 26 27 54 52 l51 45 84
-12 c46 -7 100 -19 119 -28z m10772 -4 c29 -25 54 -49 56 -53 5 -12 -28 -21
-144 -39 -105 -17 -118 -17 -225 -1 l-114 17 60 27 c132 61 153 69 230 81 44
7 81 13 82 14 1 0 26 -20 55 -46z m-10892 -143 c0 -15 -138 -68 -199 -78 l-64
-9 -40 36 -39 36 28 11 c21 9 31 9 36 1 4 -7 11 -7 22 2 8 7 36 16 63 19 50 8
193 -6 193 -18z m520 4 c69 -9 128 -20 132 -23 4 -3 -55 -34 -130 -68 -127
-58 -147 -64 -277 -83 -134 -20 -144 -20 -250 -4 -60 9 -118 20 -129 26 -18
10 -18 10 0 28 11 9 62 37 114 61 79 36 118 47 235 65 77 12 149 21 160 19 11
-2 76 -11 145 -21z m10035 0 c99 -14 138 -25 220 -61 55 -25 108 -53 119 -63
18 -18 18 -18 0 -28 -11 -6 -67 -18 -126 -27 -103 -16 -111 -16 -250 4 -134
20 -152 25 -280 84 -75 34 -134 64 -131 67 8 9 277 48 303 44 14 -2 79 -11
145 -20z m462 -5 c10 -9 17 -10 21 -2 5 8 15 8 36 -1 l28 -11 -39 -36 c-40
-36 -41 -36 -99 -28 -61 10 -209 67 -198 78 3 3 36 11 72 16 72 11 155 3 179
-16z m-11003 -217 c28 -8 25 -10 -56 -45 -68 -29 -104 -38 -173 -43 -74 -6
-87 -5 -80 7 50 85 54 88 97 92 53 6 173 -1 212 -11z m10992 -5 c6 -7 21 -30
34 -51 l24 -39 -88 7 c-69 5 -106 14 -172 42 -47 20 -83 38 -81 40 23 23 262
24 283 1z m-10756 -58 c-107 -94 -246 -161 -373 -179 -48 -7 -91 -10 -93 -7
-11 10 12 37 75 91 83 69 226 134 335 151 148 23 147 24 56 -56z m10306 57
c122 -19 264 -81 347 -154 61 -53 83 -79 74 -88 -3 -3 -45 0 -93 7 -125 17
-281 92 -379 183 -38 36 -63 65 -55 65 8 1 56 -6 106 -13z"/>
</g>
</svg>
