<?xml version="1.0" standalone="no"?>
<!DOCTYPE svg PUBLIC "-//W3C//DTD SVG 20010904//EN"
 "http://www.w3.org/TR/2001/REC-SVG-20010904/DTD/svg10.dtd">
<svg version="1.0" xmlns="http://www.w3.org/2000/svg"
 width="920.000000pt" height="1024.000000pt" viewBox="0 0 920.000000 1024.000000"
 preserveAspectRatio="xMidYMid meet">

<g transform="translate(0.000000,1024.000000) scale(0.100000,-0.100000)"
fill="#000000" stroke="none">
<path d="M1639 10219 c-5 -11 -8 -274 -7 -691 l3 -673 230 0 230 0 3 215 c2
188 4 217 19 228 12 8 69 12 200 12 152 0 185 -3 189 -15 3 -8 7 -110 7 -227
l2 -213 235 0 235 0 3 673 c1 417 -2 680 -7 691 -9 16 -28 18 -223 18 -117 0
-221 -4 -231 -9 -16 -8 -18 -24 -16 -146 1 -75 1 -174 0 -219 l-1 -82 -200 -3
c-159 -2 -201 0 -205 10 -3 8 -5 107 -5 220 0 114 -4 212 -8 218 -5 7 -79 11
-225 11 -199 0 -219 -2 -228 -18z"/>
<path d="M3185 10223 c-3 -8 -5 -116 -5 -239 l0 -224 203 0 204 0 1 -442 c0
-244 1 -449 1 -456 1 -10 51 -12 234 -10 l232 3 3 453 2 452 200 0 200 0 -2
238 -3 237 -632 1 c-538 1 -633 -1 -638 -13z"/>
<path d="M4673 10233 c-10 -4 -13 -151 -13 -694 l0 -689 225 0 225 0 0 325 c0
194 4 325 9 325 9 0 51 -52 51 -64 0 -3 16 -28 35 -55 19 -26 35 -51 35 -55 0
-4 4 -12 10 -19 19 -24 136 -202 149 -229 8 -16 20 -28 27 -28 11 0 74 80 74
94 0 5 123 194 140 213 5 7 10 15 10 18 0 7 72 116 88 133 15 16 13 55 12
-318 -1 -168 2 -313 6 -323 5 -15 28 -17 230 -17 l224 0 0 683 c0 375 -4 687
-8 693 -11 16 -460 13 -489 -4 -13 -7 -23 -17 -23 -22 0 -11 -63 -114 -72
-118 -5 -2 -8 -8 -8 -12 0 -11 -157 -270 -175 -289 -11 -11 -14 -10 -20 8 -3
11 -11 21 -16 21 -5 0 -9 4 -9 10 0 5 -30 58 -66 117 -37 60 -74 122 -84 138
-55 95 -67 113 -83 135 l-17 25 -228 1 c-125 0 -233 -1 -239 -3z"/>
<path d="M6449 10224 c-13 -16 -15 -1352 -2 -1365 5 -5 256 -8 559 -7 l549 3
3 228 2 227 -325 0 -325 0 0 453 c0 248 -4 457 -8 463 -11 17 -439 15 -453 -2z"/>
<path d="M956 8212 c5 -4 18 -99 28 -212 9 -113 21 -243 26 -290 5 -47 14
-141 20 -210 5 -69 12 -147 15 -175 3 -27 7 -75 10 -105 3 -30 10 -102 15
-160 6 -58 12 -130 14 -160 2 -30 16 -176 30 -325 15 -148 31 -319 36 -380 5
-60 11 -135 14 -165 3 -30 8 -80 11 -110 3 -30 7 -77 10 -105 2 -27 9 -102 15
-165 6 -63 15 -162 20 -220 6 -58 12 -132 15 -165 2 -33 12 -130 20 -215 9
-85 20 -204 25 -265 5 -60 14 -157 20 -215 5 -58 12 -136 15 -175 3 -38 8 -88
11 -110 3 -22 9 -89 14 -150 11 -134 46 -515 59 -645 6 -52 13 -122 15 -155 7
-95 17 -197 22 -240 3 -22 7 -76 10 -120 3 -44 9 -104 15 -134 5 -30 9 -81 9
-113 0 -33 4 -89 9 -126 6 -37 12 -98 15 -137 3 -38 12 -142 21 -230 15 -156
25 -265 45 -490 6 -60 15 -157 20 -215 6 -58 15 -159 20 -225 5 -66 11 -129
14 -140 3 -11 7 -58 10 -105 8 -135 18 -209 30 -218 13 -9 94 -35 181 -58 33
-9 74 -19 90 -24 17 -5 57 -16 90 -24 33 -9 98 -28 145 -42 47 -14 103 -30
125 -36 22 -6 51 -14 65 -18 14 -4 45 -13 70 -20 25 -7 59 -16 75 -21 17 -5
68 -20 115 -33 47 -14 105 -30 130 -37 25 -6 54 -15 65 -19 11 -4 58 -18 105
-30 47 -13 130 -36 185 -52 111 -33 127 -38 235 -67 41 -11 86 -23 100 -27 46
-12 195 -55 220 -63 14 -5 43 -14 65 -20 22 -6 121 -34 220 -62 99 -28 196
-55 215 -61 19 -5 51 -14 70 -19 138 -39 239 -67 290 -80 25 -7 49 -16 55 -20
12 -12 41 -11 63 1 15 8 68 24 258 76 32 8 74 20 92 25 17 5 47 13 65 18 17 5
88 26 157 46 69 20 136 39 150 42 14 2 34 8 45 13 11 5 31 11 45 14 28 5 39 8
220 61 69 20 149 43 178 51 112 31 161 44 272 75 63 17 124 35 135 39 11 4 39
13 63 19 23 6 61 16 85 22 23 6 51 15 62 19 11 4 65 20 120 35 55 15 111 31
125 35 14 4 45 13 70 20 59 17 79 22 245 71 77 22 174 49 215 60 78 21 94 26
195 54 33 10 70 20 82 22 36 8 41 22 48 128 4 55 9 103 11 107 3 4 7 49 10
100 3 51 10 117 15 147 5 30 9 82 9 116 0 34 4 86 9 116 6 30 12 92 15 139 3
47 7 101 10 120 3 19 8 69 11 110 17 218 23 291 28 317 3 15 9 73 12 128 4 55
9 102 10 105 2 4 7 51 10 105 4 55 11 124 16 154 5 30 9 79 9 108 0 30 4 84
10 121 8 62 13 109 26 282 2 36 7 85 9 110 3 25 9 98 15 163 5 66 11 126 14
135 3 10 8 64 11 122 4 58 9 108 11 111 2 3 6 48 9 100 4 52 11 121 16 154 5
33 9 88 9 122 0 34 4 84 10 110 5 26 11 84 14 128 3 44 8 100 10 125 5 46 10
105 26 308 5 62 11 121 14 130 3 9 8 64 11 122 4 58 9 108 12 112 2 4 6 49 9
100 3 51 9 117 15 147 5 30 9 81 9 113 0 33 4 89 10 126 5 37 12 99 14 137 3
39 7 90 10 115 3 25 8 74 11 110 15 198 25 305 29 319 3 9 8 66 11 126 4 61 9
113 11 117 3 4 7 47 10 95 3 48 9 118 14 155 6 37 10 91 10 121 0 29 4 78 9
108 5 30 12 92 16 139 3 47 10 128 15 180 5 52 13 152 19 221 5 70 12 137 15
150 3 13 8 67 11 119 3 52 8 104 10 115 3 11 7 44 9 73 l5 52 -3642 0 c-2003
0 -3637 -4 -3631 -8z m5928 -1500 c2 -4 0 -45 -4 -92 -5 -47 -14 -143 -20
-215 -11 -123 -15 -164 -25 -245 -2 -19 -7 -71 -10 -115 -3 -44 -8 -96 -10
-115 -3 -19 -7 -55 -10 -79 -3 -25 -7 -46 -9 -49 -3 -2 -784 -5 -1738 -6
l-1733 -1 0 -35 c1 -74 15 -251 20 -260 3 -5 8 -57 11 -117 4 -59 10 -115 14
-123 4 -8 8 -62 9 -119 1 -57 5 -109 9 -115 8 -12 8 -18 11 -93 l1 -53 1658
-2 1657 -3 -1 -30 c-1 -28 -9 -108 -34 -370 -5 -55 -14 -154 -20 -220 -6 -66
-15 -165 -20 -220 -5 -55 -14 -153 -20 -217 -15 -175 -30 -348 -35 -393 -22
-208 -40 -411 -64 -685 -5 -63 -16 -185 -24 -270 -9 -85 -19 -196 -22 -246 -8
-107 -19 -135 -60 -146 -91 -26 -143 -41 -170 -48 -42 -12 -87 -25 -180 -50
-44 -12 -105 -29 -135 -39 -54 -17 -95 -29 -182 -52 -24 -6 -54 -15 -68 -19
-14 -4 -43 -13 -65 -18 -22 -6 -78 -23 -125 -37 -136 -40 -149 -44 -272 -76
-24 -6 -54 -15 -68 -19 -33 -11 -127 -38 -170 -50 -19 -5 -69 -19 -110 -30
-41 -12 -91 -26 -110 -31 -19 -5 -66 -18 -103 -30 -52 -16 -74 -19 -90 -11
-22 11 -56 19 -115 29 -18 3 -35 9 -38 14 -3 5 -15 9 -26 9 -24 0 -75 15 -126
36 -18 8 -44 14 -57 14 -13 0 -27 5 -30 10 -3 6 -19 10 -35 10 -16 0 -32 4
-35 10 -3 5 -21 10 -40 10 -19 0 -37 5 -40 10 -3 6 -19 10 -35 10 -16 0 -32 5
-35 10 -3 6 -16 10 -27 10 -12 0 -53 11 -92 23 -68 23 -102 33 -198 58 -24 6
-52 15 -63 19 -11 5 -33 11 -50 15 -16 3 -41 8 -55 11 -14 3 -34 9 -45 14 -21
10 -110 34 -110 30 0 -1 -17 5 -39 14 -21 9 -49 16 -62 16 -12 0 -26 5 -29 10
-3 6 -19 10 -35 10 -16 0 -31 4 -34 9 -3 5 -20 11 -38 14 -53 9 -92 18 -113
27 -16 6 -96 31 -115 35 -63 14 -113 32 -119 45 -4 8 -9 38 -10 65 -2 28 -6
68 -10 91 -4 22 -9 76 -10 120 -1 43 -5 82 -7 86 -7 10 -12 66 -15 158 -1 41
-6 80 -10 85 -4 6 -8 57 -10 115 -1 58 -6 110 -10 115 -4 6 -9 55 -12 110 -8
134 -25 327 -36 395 -5 33 -5 59 1 65 12 14 919 14 924 0 5 -17 21 -165 29
-270 31 -440 31 -438 92 -443 15 -1 32 -7 37 -12 6 -6 22 -10 37 -10 15 0 31
-4 34 -10 3 -5 19 -10 35 -10 16 0 32 -4 35 -10 3 -5 21 -10 39 -10 17 0 36
-4 42 -9 5 -6 20 -12 34 -14 14 -2 32 -6 40 -9 8 -3 42 -13 75 -23 33 -9 68
-21 77 -26 10 -5 25 -9 35 -9 19 0 79 -18 105 -31 10 -5 31 -9 47 -9 17 0 33
-4 36 -10 3 -6 15 -10 26 -10 12 0 53 -11 92 -24 123 -41 111 -41 272 4 17 5
41 12 55 15 14 4 34 10 45 15 11 5 31 11 45 14 26 5 60 14 150 41 52 15 69 20
155 45 19 6 51 15 70 20 19 6 51 15 70 20 19 6 50 14 68 20 17 5 55 16 82 24
109 31 102 23 110 133 3 54 10 130 15 168 5 39 12 117 16 175 3 58 8 108 10
111 2 3 6 55 10 115 3 60 8 112 10 115 2 3 6 48 9 100 7 108 13 178 22 232 l6
37 -1568 0 c-863 0 -1569 1 -1571 2 -1 2 -4 36 -5 76 -2 41 -6 75 -10 78 -3 2
-7 41 -9 86 -3 115 -5 136 -13 144 -4 4 -7 45 -7 90 0 46 -4 105 -10 131 -5
26 -11 92 -14 146 -3 54 -8 102 -11 107 -3 4 -7 52 -11 106 -3 55 -9 117 -13
140 -4 22 -9 75 -10 117 -1 42 -6 89 -10 104 -4 16 -9 62 -11 103 -2 86 -5
109 -13 130 -3 8 -8 62 -11 120 -8 165 -23 336 -29 347 -3 5 -7 47 -8 93 -1
46 -6 100 -10 120 -4 19 -10 73 -13 120 -3 47 -10 123 -16 170 -13 117 -19
218 -12 225 8 8 4570 6 4576 -3z"/>
</g>
</svg>
