<?xml version="1.0" standalone="no"?>
<!DOCTYPE svg PUBLIC "-//W3C//DTD SVG 20010904//EN"
 "http://www.w3.org/TR/2001/REC-SVG-20010904/DTD/svg10.dtd">
<svg version="1.0" xmlns="http://www.w3.org/2000/svg"
 width="211.000000pt" height="239.000000pt" viewBox="0 0 211.000000 239.000000"
 preserveAspectRatio="xMidYMid meet">

<g transform="translate(0.000000,239.000000) scale(0.100000,-0.100000)"
fill="#000000" stroke="none">
<path d="M404 1873 c4 -54 9 -115 13 -135 l6 -38 148 0 149 0 0 -446 0 -446
-47 6 c-109 15 -101 7 -108 104 -3 48 -7 94 -8 102 -2 12 -26 15 -135 18
l-132 3 1 -28 c0 -15 8 -109 17 -208 l17 -180 310 -62 c171 -34 318 -62 328
-62 16 -1 17 40 17 734 l0 735 -291 0 -292 0 7 -97z"/>
<path d="M1130 1570 l0 -400 181 0 181 0 -6 -47 c-3 -27 -11 -102 -17 -168 -6
-66 -14 -123 -17 -126 -4 -3 -36 -11 -72 -17 -36 -6 -107 -19 -157 -28 l-93
-17 0 -133 c0 -74 3 -134 8 -134 8 0 555 123 560 126 3 2 72 738 72 777 l0 27
-185 0 -185 0 0 140 0 140 199 0 198 0 7 73 c4 39 9 98 13 130 l6 57 -347 0
-346 0 0 -400z"/>
</g>
</svg>
