<?xml version="1.0" standalone="no"?>
<!DOCTYPE svg PUBLIC "-//W3C//DTD SVG 20010904//EN"
 "http://www.w3.org/TR/2001/REC-SVG-20010904/DTD/svg10.dtd">
<svg version="1.0" xmlns="http://www.w3.org/2000/svg"
 width="920.000000pt" height="1024.000000pt" viewBox="0 0 189.000000 267.000000"
 preserveAspectRatio="xMidYMid meet">

<g transform="translate(0.000000,267.000000) scale(0.100000,-0.100000)"
fill="#000000" stroke="none">
<path d="M450 2490 l0 -180 140 0 140 0 0 60 0 60 -85 0 -85 0 0 60 0 60 85 0
85 0 0 60 0 60 -140 0 -140 0 0 -180z"/>
<path d="M790 2555 l0 -114 83 -3 c46 -2 82 -7 82 -13 0 -6 -36 -11 -82 -13
l-83 -3 0 -49 0 -50 140 0 140 0 0 115 0 115 -80 0 c-64 0 -80 3 -80 15 0 12
16 15 80 15 l80 0 0 50 0 50 -140 0 -140 0 0 -115z"/>
<path d="M1130 2555 l0 -115 85 0 c69 0 85 -3 85 -15 0 -12 -16 -15 -85 -15
l-85 0 0 -50 0 -50 145 0 145 0 0 115 0 115 -85 0 c-69 0 -85 3 -85 15 0 12
16 15 85 15 l85 0 0 50 0 50 -145 0 -145 0 0 -115z"/>
<path d="M5 2113 c3 -16 41 -446 86 -958 45 -511 84 -933 88 -936 11 -12 745
-212 771 -210 14 0 191 47 395 104 l369 104 83 919 c45 505 82 938 82 962 l1
42 -940 0 -939 0 4 -27z m1530 -415 c-4 -29 -28 -300 -55 -601 -27 -302 -50
-551 -53 -553 -5 -6 -468 -134 -482 -134 -27 0 -479 131 -485 140 -4 6 -12 84
-19 173 -7 89 -15 170 -17 180 -5 16 4 17 118 15 l123 -3 9 -92 c9 -106 -10
-90 170 -138 l98 -27 122 33 c66 18 126 36 132 41 6 4 14 50 18 101 4 50 9
116 13 145 l6 52 -410 0 -411 0 -6 88 c-4 48 -10 102 -13 120 l-5 32 430 0
430 0 5 33 c3 17 9 71 13 120 l6 87 -450 0 -450 0 -6 68 c-4 37 -9 91 -12 120
l-6 52 596 0 596 0 -5 -52z"/>
</g>
</svg>
