<?xml version="1.0" standalone="no"?>
<!DOCTYPE svg PUBLIC "-//W3C//DTD SVG 20010904//EN"
 "http://www.w3.org/TR/2001/REC-SVG-20010904/DTD/svg10.dtd">
<svg version="1.0" xmlns="http://www.w3.org/2000/svg"
 width="16" height="16" viewBox="0 0 225.000000 225.000000"
 preserveAspectRatio="xMidYMid meet">
<metadata>
Created by potrace 1.16, written by Peter Selinger 2001-2019
</metadata>
<g transform="translate(0.000000,225.000000) scale(0.100000,-0.100000)"
fill="#000000" stroke="none">
<path d="M975 2239 c-429 -54 -808 -381 -929 -802 -73 -254 -51 -545 59 -784
103 -224 306 -430 529 -538 626 -303 1377 32 1571 699 95 328 28 702 -173 972
-251 337 -642 505 -1057 453z m361 -299 c160 -41 295 -121 414 -246 318 -333
316 -856 -5 -1189 -118 -122 -332 -243 -383 -216 -19 10 -21 22 -24 178 -3
151 -5 172 -25 211 -13 23 -23 44 -23 46 0 2 23 6 51 10 213 29 329 169 329
401 0 95 -10 135 -48 196 -27 42 -29 51 -25 120 3 42 0 93 -7 118 l-11 44 -46
-7 c-26 -3 -79 -24 -119 -45 l-73 -40 -78 14 c-43 8 -105 14 -138 14 -33 0
-95 -6 -138 -14 l-78 -14 -73 40 c-40 21 -93 42 -119 45 l-46 7 -11 -44 c-7
-25 -10 -76 -7 -118 4 -69 2 -78 -25 -120 -38 -61 -48 -101 -48 -203 0 -149
51 -264 147 -327 51 -34 157 -71 204 -71 29 0 38 -13 19 -25 -5 -3 -16 -27
-23 -53 -13 -45 -17 -48 -64 -60 -88 -24 -132 -2 -226 111 -39 47 -97 74 -131
61 -24 -9 -20 -16 29 -58 27 -22 58 -61 75 -95 51 -101 113 -136 231 -129 l69
4 0 -93 c0 -84 -2 -93 -21 -104 -52 -27 -262 91 -383 215 -323 332 -325 855
-6 1190 140 147 307 235 505 266 85 13 237 4 331 -20z"/>
</g>
</svg>
