<?xml version="1.0" standalone="no"?>
<!DOCTYPE svg PUBLIC "-//W3C//DTD SVG 20010904//EN"
 "http://www.w3.org/TR/2001/REC-SVG-20010904/DTD/svg10.dtd">
<svg version="1.0" xmlns="http://www.w3.org/2000/svg"
 width="512.000000pt" height="512.000000pt" viewBox="0 0 512.000000 512.000000"
 preserveAspectRatio="xMidYMid meet">

<g transform="translate(0.000000,512.000000) scale(0.100000,-0.100000)"
fill="#000000" stroke="none">
<path d="M1431 4829 c-141 -24 -286 -138 -355 -280 -113 -235 -123 -568 -32
-992 14 -65 26 -124 26 -131 0 -7 -40 -24 -92 -40 -128 -38 -297 -105 -420
-166 -573 -286 -719 -708 -369 -1061 165 -166 413 -301 761 -414 63 -21 117
-39 119 -41 2 -2 -10 -72 -27 -156 -72 -356 -79 -602 -21 -825 59 -231 206
-386 407 -429 89 -18 139 -17 247 5 248 51 545 230 822 494 l63 60 72 -69
c272 -258 569 -435 813 -485 108 -22 158 -23 247 -5 202 43 348 198 408 430
56 221 50 471 -22 824 -17 84 -29 154 -27 156 2 2 62 22 133 46 347 114 573
237 742 405 141 140 203 283 191 440 -18 234 -217 458 -557 626 -116 58 -291
127 -417 166 -51 15 -93 33 -93 39 0 7 12 66 26 131 115 535 68 931 -137 1136
-83 83 -165 123 -283 139 -270 36 -651 -148 -1024 -494 -34 -32 -67 -58 -72
-58 -5 0 -38 26 -72 58 -288 268 -591 445 -833 487 -96 16 -142 17 -224 4z
m294 -241 c179 -58 408 -209 616 -406 l68 -64 -92 -106 c-100 -116 -212 -255
-295 -368 l-52 -71 -82 -7 c-101 -9 -379 -51 -507 -77 -52 -11 -96 -18 -97
-16 -8 8 -54 243 -69 352 -21 151 -16 428 10 519 71 255 231 332 500 244z
m1992 6 c84 -40 142 -122 178 -250 26 -91 31 -368 10 -519 -14 -107 -61 -344
-68 -352 -2 -1 -61 9 -132 22 -156 31 -362 62 -473 71 l-82 7 -52 71 c-83 113
-195 252 -295 368 l-93 107 89 82 c257 235 521 390 715 419 73 11 143 2 203
-26z m-1071 -726 c43 -50 110 -130 148 -177 l68 -86 -151 -3 c-83 -1 -219 -1
-302 0 l-151 3 68 86 c92 114 226 269 234 269 3 0 42 -41 86 -92z m229 -488
c174 -10 147 7 261 -172 108 -170 189 -311 282 -488 l81 -155 -61 -120 c-84
-167 -205 -380 -313 -548 l-91 -142 -59 -8 c-78 -10 -752 -10 -830 0 l-59 8
-93 145 c-110 172 -228 379 -312 545 l-60 120 76 145 c122 234 343 603 388
649 25 26 500 39 790 21z m-1068 -47 c-152 -255 -210 -355 -247 -426 -25 -48
-48 -87 -51 -87 -7 0 -58 131 -125 318 -31 88 -40 124 -31 127 12 4 223 44
337 63 70 12 122 14 117 5z m1693 -18 c257 -43 270 -47 270 -66 0 -30 -148
-429 -159 -429 -3 0 -26 39 -51 87 -37 71 -95 171 -247 426 -7 12 35 8 187
-18z m-2311 -263 c29 -86 85 -231 123 -321 81 -189 82 -149 -10 -367 -33 -77
-83 -207 -111 -288 -28 -82 -53 -152 -56 -156 -3 -5 -51 6 -108 24 -552 176
-857 429 -807 671 33 158 220 323 520 456 76 33 370 138 390 139 3 0 29 -71
59 -158z m2928 117 c461 -150 744 -352 783 -559 44 -231 -242 -477 -755 -649
-137 -46 -151 -49 -162 -34 -7 9 -13 22 -13 29 0 21 -108 309 -171 456 -33 75
-59 142 -59 149 0 7 31 84 69 173 38 89 93 232 122 318 30 87 55 158 57 158 2
0 60 -18 129 -41z m-2522 -1017 c44 -80 110 -196 148 -256 37 -60 66 -111 63
-113 -7 -8 -384 54 -448 73 -15 4 -13 15 16 102 46 135 128 342 135 342 3 -1
42 -67 86 -148z m2070 26 c26 -68 62 -167 81 -220 29 -87 31 -98 16 -102 -64
-19 -441 -81 -448 -73 -3 2 26 53 63 113 38 60 104 176 148 256 44 81 83 147
86 148 3 0 28 -55 54 -122z m-2185 -564 c69 -13 208 -34 309 -46 l184 -23 86
-115 c73 -98 193 -244 319 -390 l32 -38 -86 -79 c-192 -175 -410 -319 -585
-385 -75 -29 -95 -32 -194 -32 -103 -1 -113 1 -157 27 -89 52 -144 151 -175
312 -12 61 -14 122 -10 260 5 174 20 285 64 478 l15 69 37 -7 c20 -4 92 -18
161 -31z m2374 -31 c43 -193 58 -304 63 -478 7 -251 -22 -393 -103 -499 -55
-72 -111 -99 -213 -104 -108 -5 -181 13 -317 77 -157 75 -314 186 -492 348
l-82 75 32 38 c127 146 246 292 320 391 l86 116 119 12 c114 12 431 63 503 80
67 17 67 16 84 -56z m-994 -63 c0 -17 -287 -355 -301 -355 -14 0 -299 338
-299 354 0 3 135 6 300 6 165 0 300 -2 300 -5z"/>
<path d="M2480 3009 c-234 -38 -407 -279 -370 -516 57 -367 508 -517 769 -256
264 265 119 714 -249 772 -73 12 -74 12 -150 0z"/>
</g>
</svg>
